<svg width="29" height="44" viewBox="0 0 29 44" fill="none" xmlns="http://www.w3.org/2000/svg">
<path d="M27.108 19.96H14.472V25H21.204C20.304 27.412 18.108 28.888 14.76 28.888C9.864 28.888 6.84 25.756 6.84 21.472C6.84 17.044 10.008 13.912 14.256 13.912C17.1 13.912 19.368 15.208 20.412 16.864L25.308 14.056C23.184 10.672 19.116 8.296 14.292 8.296C6.876 8.296 1.08 14.128 1.08 21.436C1.08 28.672 6.768 34.504 14.688 34.504C21.744 34.504 27.108 29.824 27.108 22.12V19.96Z" fill="#1976D3"/>
<path d="M1.5 18C6 3.50004 21.5 7.49997 25.5 13.9999L20.5 17C16.5 11.5 7.5 14.5 7 20.5L1.5 18Z" fill="#FF460D"/>
<path d="M7 24.5C10 29.5 18 31 21.5 25L22 32C23 33 13 37 7 32V24.5Z" fill="#54B357"/>
<path d="M1.49998 18L6.99992 20.5V32C6.99992 32 3.99991 31 1.99992 26.5C-5.99623e-05 22 1.5 20.5 1.49998 18Z" fill="#FEC822"/>
</svg>
