<svg width="201" height="58" viewBox="0 0 201 58" fill="none" xmlns="http://www.w3.org/2000/svg">
<path d="M75.3732 37.8727L92.4697 16.9687H75.7092V13.9824H96.3892V16.5954L79.5914 37.4994H96.3892V40.4857H75.3732V37.8727ZM111.838 40.6724C109.723 40.6724 107.943 40.3115 106.5 39.5898C105.057 38.8433 103.899 37.8478 103.028 36.6035C102.157 35.3344 101.523 33.9034 101.125 32.3108C100.727 30.7181 100.527 29.0756 100.527 27.3834V13.9824H103.887V27.3834C103.887 28.6774 104.011 29.9466 104.26 31.1909C104.534 32.4103 104.97 33.5053 105.567 34.4758C106.164 35.4464 106.973 36.2178 107.993 36.7902C109.013 37.3626 110.283 37.6487 111.801 37.6487C113.344 37.6487 114.625 37.3626 115.646 36.7902C116.666 36.1929 117.475 35.409 118.072 34.4385C118.669 33.4431 119.092 32.3356 119.341 31.1162C119.615 29.8968 119.752 28.6526 119.752 27.3834V13.9824H123.111V27.3834C123.111 29.1752 122.9 30.8798 122.477 32.4974C122.078 34.0901 121.431 35.4961 120.536 36.7155C119.64 37.9349 118.47 38.9055 117.027 39.6272C115.608 40.324 113.879 40.6724 111.838 40.6724ZM149.423 33.6546C149.423 35.0233 149.075 36.2178 148.378 37.2381C147.681 38.2584 146.736 39.0548 145.541 39.6272C144.372 40.1995 143.078 40.4857 141.659 40.4857H129.079V13.9824H142.256C143.501 13.9824 144.571 14.3184 145.467 14.9903C146.387 15.6373 147.084 16.4834 147.557 17.5286C148.055 18.549 148.304 19.619 148.304 20.7389C148.304 22.033 147.968 23.2524 147.296 24.3971C146.649 25.517 145.716 26.3506 144.496 26.8981C146.014 27.3461 147.209 28.1797 148.08 29.3991C148.976 30.5936 149.423 32.0121 149.423 33.6546ZM132.439 16.8941V25.7409H140.875C142.045 25.7409 143.015 25.3179 143.787 24.4718C144.583 23.6008 144.981 22.5556 144.981 21.3362C144.981 20.0919 144.608 19.0467 143.862 18.2006C143.14 17.3296 142.219 16.8941 141.099 16.8941H132.439ZM146.027 33.0573C146.027 32.2361 145.84 31.4771 145.467 30.7803C145.118 30.0835 144.633 29.5236 144.011 29.1005C143.414 28.6774 142.717 28.4659 141.92 28.4659H132.439V37.5741H141.659C142.48 37.5741 143.215 37.3626 143.862 36.9395C144.533 36.5164 145.056 35.969 145.429 35.297C145.828 34.6002 146.027 33.8537 146.027 33.0573ZM161.639 13.9824H164.476L175.302 40.4857H171.718L168.582 32.7214H157.458L154.36 40.4857H150.777L161.639 13.9824ZM167.836 30.1084L163.058 17.8646L158.13 30.1084H167.836ZM178.839 40.4857V13.9824H190.187C191.356 13.9824 192.426 14.2313 193.397 14.729C194.367 15.2018 195.213 15.8489 195.935 16.6701C196.657 17.4664 197.217 18.3748 197.615 19.3951C198.013 20.3905 198.212 21.4108 198.212 22.456C198.212 23.6754 197.976 24.8326 197.503 25.9276C197.055 27.0225 196.408 27.9558 195.562 28.7272C194.741 29.4987 193.77 30.0337 192.65 30.3323L199.071 40.4857H195.263L189.216 30.9669H182.198V40.4857H178.839ZM182.198 27.9806H190.224C191.145 27.9806 191.941 27.7318 192.613 27.2341C193.31 26.7115 193.845 26.0271 194.218 25.181C194.616 24.3349 194.815 23.4266 194.815 22.456C194.815 21.4606 194.591 20.5523 194.143 19.731C193.695 18.8849 193.111 18.213 192.389 17.7153C191.667 17.2176 190.871 16.9687 190 16.9687H182.198V27.9806Z" fill="white"/>
<path d="M2.87109 54.5571V30.15V2.87143H60.2997L21.2916 37.9787M2.87109 54.5571L21.2916 37.9787M2.87109 54.5571H60.2997L21.2916 37.9787" stroke="white" stroke-width="4.30714" stroke-linecap="round" stroke-linejoin="round"/>
</svg>
