<svg width="32" height="32" viewBox="0 0 32 32" fill="none" xmlns="http://www.w3.org/2000/svg">
<path d="M16 1.33325C14.9391 1.33325 13.9217 1.75468 13.1716 2.50482C12.4214 3.25497 12 4.27239 12 5.33325V15.9999C12 17.0608 12.4214 18.0782 13.1716 18.8283C13.9217 19.5785 14.9391 19.9999 16 19.9999C17.0609 19.9999 18.0783 19.5785 18.8284 18.8283C19.5786 18.0782 20 17.0608 20 15.9999V5.33325C20 4.27239 19.5786 3.25497 18.8284 2.50482C18.0783 1.75468 17.0609 1.33325 16 1.33325V1.33325Z" stroke="#211925" stroke-width="2" stroke-linecap="round" stroke-linejoin="round"/>
<path d="M25.3337 13.3333V15.9999C25.3337 18.4753 24.3503 20.8492 22.6 22.5996C20.8496 24.3499 18.4757 25.3333 16.0003 25.3333C13.525 25.3333 11.151 24.3499 9.40066 22.5996C7.65032 20.8492 6.66699 18.4753 6.66699 15.9999V13.3333" stroke="#211925" stroke-width="2" stroke-linecap="round" stroke-linejoin="round"/>
<path d="M16 25.3333V30.6666" stroke="#211925" stroke-width="2" stroke-linecap="round" stroke-linejoin="round"/>
<path d="M10.667 30.6667H21.3337" stroke="#211925" stroke-width="2" stroke-linecap="round" stroke-linejoin="round"/>
</svg>
