<svg width="32" height="32" viewBox="0 0 32 32" fill="none" xmlns="http://www.w3.org/2000/svg">
<path d="M15.8939 29.3334C23.2577 29.3334 29.2272 23.3639 29.2272 16.0001C29.2272 8.63629 23.2577 2.66675 15.8939 2.66675C8.53008 2.66675 2.56055 8.63629 2.56055 16.0001C2.56055 23.3639 8.53008 29.3334 15.8939 29.3334Z" stroke="#211925" stroke-width="2" stroke-linecap="round" stroke-linejoin="round"/>
<path d="M12 20.8V12.0416C11.9999 11.8554 12.0617 11.6745 12.1756 11.5273C12.2895 11.3801 12.4491 11.2749 12.6293 11.2282C12.8095 11.1815 13.0001 11.1959 13.1711 11.2693C13.3422 11.3427 13.484 11.4708 13.5744 11.6336L18.4256 20.3664C18.516 20.5291 18.6578 20.6572 18.8289 20.7306C18.9999 20.804 19.1905 20.8184 19.3707 20.7717C19.5509 20.7251 19.7105 20.6198 19.8244 20.4726C19.9383 20.3254 20.0001 20.1445 20 19.9584V11.2" stroke="#211925" stroke-width="2" stroke-linecap="round" stroke-linejoin="round"/>
<path d="M10.4004 14.3999H21.6004" stroke="#211925" stroke-width="2" stroke-linecap="round" stroke-linejoin="round"/>
<path d="M10.4004 17.5999H21.6004" stroke="#211925" stroke-width="2" stroke-linecap="round" stroke-linejoin="round"/>
</svg>
