<svg width="32" height="32" viewBox="0 0 32 32" fill="none" xmlns="http://www.w3.org/2000/svg">
<path d="M28.5507 8.88892H3.44845C3.00525 8.88892 2.58019 9.06498 2.2668 9.37837C1.95341 9.69177 1.77734 10.1168 1.77734 10.56V26.7734C1.77734 27.2166 1.95341 27.6416 2.2668 27.955C2.58019 28.2684 3.00525 28.4445 3.44845 28.4445H28.5507C28.9939 28.4445 29.4189 28.2684 29.7323 27.955C30.0457 27.6416 30.2218 27.2166 30.2218 26.7734V10.56C30.2218 10.1168 30.0457 9.69177 29.7323 9.37837C29.4189 9.06498 28.9939 8.88892 28.5507 8.88892ZM28.444 26.6667H3.55512V10.6667H28.444V26.6667Z" fill="#211925"/>
<path d="M26.7913 2.66672C26.7913 2.43097 26.6977 2.20488 26.531 2.03818C26.3643 1.87148 26.1382 1.77783 25.9025 1.77783H6.3469C6.11115 1.77783 5.88506 1.87148 5.71836 2.03818C5.55166 2.20488 5.45801 2.43097 5.45801 2.66672V3.55561H26.7913V2.66672Z" fill="#211925"/>
<path d="M28.551 6.22214C28.551 5.98639 28.4573 5.7603 28.2906 5.5936C28.124 5.4269 27.8979 5.33325 27.6621 5.33325H4.551C4.31525 5.33325 4.08916 5.4269 3.92246 5.5936C3.75576 5.7603 3.66211 5.98639 3.66211 6.22214V7.11103H28.551V6.22214Z" fill="#211925"/>
<path d="M11.3954 23.8134C11.6417 23.9732 11.9285 24.0595 12.222 24.0623C12.4336 24.0618 12.6427 24.0164 12.8354 23.929L21.5198 20.0534C21.7883 19.9368 22.0168 19.7442 22.1773 19.4995C22.3379 19.2547 22.4234 18.9684 22.4234 18.6756C22.4234 18.3829 22.3379 18.0966 22.1773 17.8518C22.0168 17.6071 21.7883 17.4145 21.5198 17.2979L12.8354 13.4223C12.6056 13.3202 12.3539 13.2771 12.1032 13.2969C11.8526 13.3167 11.6108 13.3987 11.3998 13.5355C11.1888 13.6723 11.0153 13.8597 10.8951 14.0805C10.7748 14.3013 10.7115 14.5486 10.7109 14.8001V22.5512C10.7114 22.8018 10.7742 23.0485 10.8937 23.2688C11.0131 23.4891 11.1856 23.6763 11.3954 23.8134ZM11.9554 14.8001C11.9551 14.7554 11.9664 14.7115 11.9882 14.6725C12.0101 14.6336 12.0416 14.601 12.0798 14.5779C12.1264 14.565 12.1755 14.565 12.222 14.5779C12.2572 14.5699 12.2936 14.5699 12.3287 14.5779L21.0132 18.4445C21.0622 18.4646 21.1038 18.4992 21.1324 18.5437C21.1611 18.5883 21.1753 18.6405 21.1732 18.6934C21.1747 18.7451 21.1601 18.796 21.1315 18.839C21.1028 18.882 21.0614 18.915 21.0132 18.9334L12.3287 22.809C12.2909 22.8308 12.248 22.8423 12.2043 22.8423C12.1606 22.8423 12.1177 22.8308 12.0798 22.809C12.0427 22.7847 12.0121 22.7518 11.9904 22.7131C11.9687 22.6744 11.9567 22.6311 11.9554 22.5868V14.8001Z" fill="#211925"/>
</svg>
