<svg width="486" height="339" viewBox="0 0 486 339" fill="none" xmlns="http://www.w3.org/2000/svg">
<g clip-path="url(#clip0)">
<path d="M96.8323 338.237C150.311 338.237 193.665 334.944 193.665 330.882C193.665 326.821 150.311 323.528 96.8323 323.528C43.3533 323.528 0 326.821 0 330.882C0 334.944 43.3533 338.237 96.8323 338.237Z" fill="#E6E6E6"/>
<path d="M74.0166 75.1274C90.8683 67.9598 111.857 72.5011 132.356 75.653C132.546 71.8361 134.858 67.1907 132.436 64.5278C129.494 61.2926 129.765 57.8933 131.535 54.4745C136.063 45.732 129.576 36.4296 123.026 28.6946C121.55 26.9552 119.684 25.5884 117.581 24.7055C115.477 23.8225 113.195 23.4482 110.919 23.6129L98.7859 24.4796C95.8334 24.6905 93.0157 25.798 90.7099 27.654C88.4041 29.51 86.7201 32.026 85.8833 34.8652C82.9861 38.8054 81.4355 42.7347 82.4118 46.6436C78.0723 49.6091 77.3433 53.1888 79.2932 57.2243C80.9467 59.7651 80.9292 62.2384 79.218 64.6433C76.9708 67.7093 75.2496 71.1281 74.1251 74.7593L74.0166 75.1274Z" fill="#2F2E41"/>
<path d="M474.483 292.414H131.024C127.97 292.414 125.041 291.2 122.881 289.041C120.721 286.881 119.508 283.952 119.508 280.897C244.012 266.428 366.176 266.428 486 280.897C486 283.952 484.786 286.881 482.627 289.041C480.467 291.2 477.538 292.414 474.483 292.414Z" fill="#2F2E41"/>
<path d="M486 281.575L119.508 280.897L161.983 209.428L162.186 209.089V51.5793C162.186 49.6674 162.562 47.7743 163.294 46.0079C164.026 44.2416 165.098 42.6367 166.45 41.2848C167.802 39.9329 169.407 38.8606 171.173 38.129C172.939 37.3975 174.832 37.0211 176.744 37.0212H426.731C428.643 37.0211 430.536 37.3975 432.302 38.129C434.069 38.8606 435.673 39.9329 437.025 41.2848C438.377 42.6367 439.45 44.2416 440.181 46.0079C440.913 47.7743 441.289 49.6674 441.289 51.5793V210.173L486 281.575Z" fill="#3F3D56"/>
<path d="M176.413 47.1827C175.156 47.1841 173.95 47.6842 173.061 48.5732C172.172 49.4622 171.672 50.6675 171.671 51.9247V195.541C171.672 196.798 172.172 198.003 173.061 198.892C173.95 199.781 175.156 200.281 176.413 200.283H429.096C430.353 200.281 431.558 199.781 432.447 198.892C433.336 198.003 433.836 196.798 433.838 195.541V51.9247C433.836 50.6675 433.336 49.4622 432.447 48.5732C431.558 47.6843 430.353 47.1842 429.096 47.1827H176.413Z" fill="white"/>
<path d="M177.472 219.251C177.083 219.252 176.703 219.363 176.376 219.573C176.049 219.782 175.789 220.081 175.626 220.434L162.538 248.886C162.395 249.196 162.333 249.536 162.356 249.876C162.38 250.216 162.489 250.545 162.673 250.832C162.856 251.119 163.11 251.355 163.409 251.518C163.708 251.682 164.043 251.768 164.384 251.768H439.615C439.962 251.768 440.303 251.679 440.605 251.511C440.908 251.342 441.162 251.099 441.344 250.804C441.526 250.509 441.63 250.173 441.645 249.827C441.661 249.481 441.588 249.136 441.433 248.827L427.207 220.374C427.039 220.036 426.78 219.752 426.458 219.553C426.137 219.354 425.767 219.25 425.389 219.251H177.472Z" fill="#2F2E41"/>
<path d="M301.738 44.8117C303.422 44.8117 304.786 43.4469 304.786 41.7633C304.786 40.0796 303.422 38.7148 301.738 38.7148C300.054 38.7148 298.689 40.0796 298.689 41.7633C298.689 43.4469 300.054 44.8117 301.738 44.8117Z" fill="white"/>
<path d="M274.685 257.187C274.239 257.188 273.804 257.335 273.45 257.607C273.095 257.879 272.84 258.26 272.723 258.691L269.44 270.885C269.359 271.186 269.348 271.502 269.409 271.808C269.469 272.114 269.599 272.402 269.789 272.65C269.979 272.897 270.223 273.098 270.503 273.236C270.783 273.374 271.09 273.446 271.402 273.446H333.837C334.161 273.446 334.48 273.368 334.768 273.22C335.056 273.071 335.305 272.856 335.492 272.592C335.68 272.328 335.802 272.023 335.848 271.702C335.894 271.382 335.863 271.055 335.757 270.749L331.536 258.555C331.398 258.155 331.138 257.809 330.794 257.564C330.45 257.319 330.038 257.187 329.616 257.187H274.685Z" fill="#2F2E41"/>
<path d="M441.289 206.718V209.428H161.983L162.194 209.09V206.718H441.289Z" fill="#2F2E41"/>
<path d="M433.499 94.9418C459.688 94.9418 480.919 73.711 480.919 47.5214C480.919 21.3319 459.688 0.101059 433.499 0.101059C407.309 0.101059 386.078 21.3319 386.078 47.5214C386.078 73.711 407.309 94.9418 433.499 94.9418Z" fill="white"/>
<path d="M453.144 68.1832H413.853C413.135 68.1825 412.446 67.8968 411.938 67.3888C411.43 66.8807 411.144 66.1919 411.144 65.4735V41.7633C411.144 41.0448 411.43 40.356 411.938 39.848C412.446 39.34 413.135 39.0543 413.853 39.0535H453.144C453.863 39.0543 454.552 39.34 455.06 39.848C455.568 40.356 455.853 41.0448 455.854 41.7633V65.4734C455.854 66.1919 455.568 66.8807 455.06 67.3888C454.552 67.8968 453.863 68.1825 453.144 68.1832ZM413.853 41.7633V65.4735H453.146L453.144 41.7633L413.853 41.7633Z" fill="#4E0697"/>
<path d="M445.692 41.7633H421.305V30.9243C421.305 23.0736 426.433 17.3756 433.498 17.3756C440.564 17.3756 445.692 23.0736 445.692 30.9243L445.692 41.7633ZM424.014 39.0535H442.983V30.9243C442.983 24.5426 439.083 20.0854 433.499 20.0854C427.914 20.0854 424.014 24.5426 424.014 30.9243L424.014 39.0535Z" fill="#4E0697"/>
<path d="M433.499 55.6506C434.995 55.6506 436.209 54.4375 436.209 52.9409C436.209 51.4444 434.995 50.2312 433.499 50.2312C432.002 50.2312 430.789 51.4444 430.789 52.9409C430.789 54.4375 432.002 55.6506 433.499 55.6506Z" fill="#4E0697"/>
<path d="M400.395 151.57H205.112C204.154 151.569 203.234 151.187 202.557 150.509C201.879 149.831 201.497 148.912 201.496 147.953V99.5121C201.497 98.5534 201.879 97.6342 202.557 96.9562C203.234 96.2783 204.154 95.8969 205.112 95.8958H400.395C401.354 95.8969 402.273 96.2783 402.951 96.9562C403.629 97.6342 404.01 98.5534 404.011 99.5121V147.953C404.01 148.912 403.629 149.831 402.951 150.509C402.273 151.187 401.354 151.569 400.395 151.57ZM205.112 97.3423C204.537 97.343 203.986 97.5718 203.579 97.9786C203.172 98.3853 202.943 98.9369 202.943 99.5121V147.953C202.943 148.529 203.172 149.08 203.579 149.487C203.986 149.894 204.537 150.123 205.112 150.123H400.395C400.97 150.123 401.522 149.894 401.928 149.487C402.335 149.08 402.564 148.529 402.565 147.953V99.5121C402.564 98.9368 402.335 98.3853 401.928 97.9785C401.522 97.5717 400.97 97.3429 400.395 97.3423L205.112 97.3423Z" fill="#E6E6E6"/>
<path d="M235.456 136.605C243.591 136.605 250.187 130.01 250.187 121.874C250.187 113.738 243.591 107.143 235.456 107.143C227.32 107.143 220.725 113.738 220.725 121.874C220.725 130.01 227.32 136.605 235.456 136.605Z" fill="#E6E6E6"/>
<path d="M269.478 112.053C269.155 112.053 268.835 112.116 268.537 112.239C268.239 112.362 267.967 112.543 267.739 112.771C267.511 112.999 267.329 113.27 267.206 113.568C267.082 113.866 267.019 114.186 267.019 114.509C267.019 114.831 267.082 115.151 267.206 115.449C267.329 115.747 267.511 116.018 267.739 116.246C267.967 116.474 268.239 116.655 268.537 116.778C268.835 116.901 269.155 116.964 269.478 116.964H385.221C385.873 116.964 386.497 116.705 386.957 116.245C387.418 115.784 387.677 115.16 387.677 114.509C387.677 113.857 387.418 113.233 386.957 112.772C386.497 112.312 385.873 112.053 385.221 112.053H269.478Z" fill="#E6E6E6"/>
<path d="M269.478 126.784C268.826 126.784 268.202 127.043 267.742 127.504C267.281 127.964 267.022 128.588 267.022 129.24C267.022 129.891 267.281 130.515 267.742 130.976C268.202 131.436 268.826 131.695 269.478 131.695H319.282C319.934 131.695 320.558 131.436 321.019 130.976C321.479 130.515 321.738 129.891 321.738 129.24C321.738 128.588 321.479 127.964 321.019 127.504C320.558 127.043 319.934 126.784 319.282 126.784H269.478Z" fill="#E6E6E6"/>
<path d="M161.503 127.778L125.403 146.97L124.946 130.976C136.729 129.009 147.939 125.585 158.304 120.009L162.08 110.682C162.491 109.665 163.16 108.773 164.02 108.093C164.88 107.413 165.902 106.969 166.986 106.803C168.07 106.638 169.179 106.757 170.203 107.149C171.227 107.541 172.131 108.193 172.827 109.04C173.845 110.28 174.354 111.86 174.251 113.461C174.148 115.062 173.44 116.564 172.27 117.663L161.503 127.778Z" fill="#FFB8B8"/>
<path d="M73.2977 238.586C73.0343 237.62 72.9784 236.609 73.1336 235.62C73.2888 234.631 73.6516 233.686 74.1981 232.848L82.1282 220.678C84.0038 217.799 86.8818 215.72 90.2038 214.844C93.5258 213.967 97.055 214.356 100.106 215.935C96.7737 221.607 97.2383 226.584 101.257 230.909C95.0182 233.955 89.2517 237.886 84.1365 242.581C83.2027 243.217 82.1303 243.622 81.0086 243.76C79.8869 243.898 78.7484 243.766 77.688 243.376C76.6276 242.985 75.6759 242.346 74.9122 241.513C74.1485 240.68 73.595 239.676 73.2977 238.586Z" fill="#2F2E41"/>
<path d="M163.147 222.673C161.947 224.673 160.253 226.331 158.228 227.488C156.203 228.645 153.914 229.262 151.582 229.28L98.9 229.679L96.6152 216.427L119.92 209.573L100.271 194.493L121.748 169.361L160.756 205.718C163.036 207.843 164.518 210.686 164.953 213.773C165.388 216.859 164.751 220.001 163.147 222.673Z" fill="#2F2E41"/>
<path d="M90.6747 313.301H78.3368C67.2593 237.369 55.9834 161.225 89.3038 132.804L128.602 139.201L123.575 172.559L101.642 197.692L90.6747 313.301Z" fill="#2F2E41"/>
<path d="M101.52 330.502C100.554 330.766 99.5432 330.822 98.5542 330.667C97.5652 330.512 96.6202 330.149 95.7814 329.602L82.3851 327.802C79.5065 325.926 77.4271 323.048 76.5505 319.726C75.6739 316.404 76.0625 312.875 77.6409 309.824C83.3141 313.156 88.2907 312.691 92.6153 308.672C95.671 314.842 100.706 314.465 105.514 319.663C106.151 320.597 106.555 321.67 106.693 322.791C106.832 323.913 106.7 325.051 106.309 326.112C105.918 327.172 105.28 328.124 104.447 328.888C103.614 329.651 102.61 330.205 101.52 330.502Z" fill="#2F2E41"/>
<path d="M119.92 82.082L97.0723 76.5986C100.867 68.8312 101.179 60.1884 99.357 51.0091L114.893 50.5521C115.38 61.9669 116.853 72.6312 119.92 82.082Z" fill="#FFB8B8"/>
<path d="M126.199 152.96C109.567 164.294 97.8152 153.348 88.8471 136.46C90.0933 126.126 88.0755 113.759 84.3384 100.321C82.6764 94.3946 83.2969 88.06 86.0774 82.5683C88.8579 77.0766 93.5963 72.8269 99.3571 70.6582L119.006 78.8834C135.69 92.483 138.974 107.214 132.715 122.751L126.199 152.96Z" fill="white"/>
<path d="M78.3369 93.5059L60.0587 103.102L92.5025 122.294L97.0169 133.43C97.3182 134.173 97.465 134.97 97.4483 135.771C97.4316 136.573 97.2518 137.363 96.9198 138.093C96.5878 138.823 96.1106 139.478 95.5173 140.018C94.924 140.557 94.227 140.97 93.4689 141.232C92.607 141.529 91.6881 141.623 90.784 141.505C89.8799 141.388 89.0153 141.063 88.2577 140.556C87.5002 140.049 86.8704 139.373 86.4176 138.582C85.9648 137.791 85.7013 136.905 85.6478 135.995L85.1912 128.235L43.9555 114.627C42.5662 114.168 41.2994 113.4 40.2511 112.379C39.2028 111.358 38.4005 110.113 37.9049 108.736C37.1826 106.73 37.1458 104.54 37.8004 102.511C38.4549 100.481 39.7639 98.7257 41.5224 97.5193L74.6813 74.7708L78.3369 93.5059Z" fill="#FFB8B8"/>
<path d="M96.615 95.3338C88.9919 91.993 82.0599 95.6221 73.3103 98.5325L71.9395 74.3138C80.6275 69.6832 88.9109 68.4347 96.615 72.0291L96.615 95.3338Z" fill="white"/>
<path d="M105.734 62.5484C113.79 62.5484 120.321 56.0174 120.321 47.961C120.321 39.9046 113.79 33.3736 105.734 33.3736C97.6775 33.3736 91.1465 39.9046 91.1465 47.961C91.1465 56.0174 97.6775 62.5484 105.734 62.5484Z" fill="#FFB8B8"/>
<path d="M123.186 46.1205C108.743 47.535 97.7377 45.1729 90.7041 38.4474V33.0311H121.96L123.186 46.1205Z" fill="#2F2E41"/>
</g>
<defs>
<clipPath id="clip0">
<rect width="486" height="338.136" fill="white" transform="translate(0 0.101074)"/>
</clipPath>
</defs>
</svg>
