<svg width="597" height="413" viewBox="0 0 597 413" fill="none" xmlns="http://www.w3.org/2000/svg">
<g clip-path="url(#clip0)">
<path opacity="0.1" d="M337.681 56.1116C299.414 56.1628 262.58 45.3149 227.349 33.2641C192.118 21.2132 157.158 7.71864 119.603 2.00036C95.4497 -1.67532 67.9846 -1.33744 49.1045 12.0086C30.9309 24.8479 25.6682 46.0982 23.129 65.7308C21.2195 80.5 20.339 96.0014 27.4907 109.511C32.4565 118.89 40.9545 126.62 46.9441 135.558C67.8514 166.653 55.2784 206.374 34.9598 238.191C25.4327 253.118 14.2726 267.427 7.06974 283.21C-0.133149 298.993 -3.087 316.89 4.25923 332.468C11.5389 347.908 27.9822 359.114 45.6285 366.767C81.4637 382.34 123.186 385.678 163.788 386.963C253.662 389.815 343.711 383.999 433.52 378.183C466.754 376.033 500.137 373.868 532.686 367.638C550.757 364.182 569.366 359.053 582.18 347.811C598.444 333.538 601.771 310.235 589.935 293.484C570.088 265.389 517.753 260.091 503.521 229.692C495.673 212.957 502.441 193.765 512.408 177.634C533.787 143.022 570.584 112.02 571.204 73.3074C571.629 46.7228 552.493 20.7883 523.911 9.23396C493.953 -2.86812 453.106 0.244429 432.117 22.8002C410.534 46.0368 371.468 56.0758 337.681 56.1116Z" fill="white"/>
<path d="M508.108 330.381C508.108 330.381 501.816 326.229 495.581 329.183C495.581 329.183 497.501 332.879 505.395 332.531L508.108 330.381Z" fill="#4E0697"/>
<path d="M508.907 330.601C508.907 330.601 510.821 337.891 506.02 342.851C506.02 342.851 503.132 339.846 506.02 332.485L508.907 330.601Z" fill="#4E0697"/>
<path d="M516.729 323.603C516.729 323.603 516.263 317.403 502.262 319.461C502.262 319.461 502.195 323.459 507.11 325.354C512.024 327.248 514.277 325.65 516.729 323.603Z" fill="#4E0697"/>
<path d="M517.609 323.562C517.609 323.562 523.527 325.461 518.249 338.592C518.249 338.592 514.343 337.722 513.642 332.495C512.94 327.268 515.019 325.466 517.609 323.562Z" fill="#4E0697"/>
<path d="M525.514 314.767C525.514 314.767 526.318 304.564 512.009 305.608C512.009 305.608 510.985 314.823 522.99 317.219L525.514 314.767Z" fill="#4E0697"/>
<path d="M534.969 303.248C534.969 303.248 533.008 291.684 518.705 295.129C518.705 295.129 518.654 305.127 532.635 306.002L534.969 303.248Z" fill="#4E0697"/>
<path d="M541.881 291.341C541.881 291.341 538.594 280.078 524.424 283.447C524.424 283.447 527.797 293.578 540.939 293.419L541.881 291.341Z" fill="#4E0697"/>
<path d="M548.444 279.709C548.444 279.709 545.234 268.022 531.55 271.519C531.55 271.519 536.116 282.622 547.537 281.686L548.444 279.709Z" fill="#4E0697"/>
<path d="M552.672 268.662C552.672 268.662 550.205 254.369 537.447 257.533C537.447 257.533 541.154 270.536 551.735 270.746L552.672 268.662Z" fill="#4E0697"/>
<path d="M556.639 255.316C556.639 255.316 553.675 240.91 540.77 245.077C540.77 245.077 545.827 258.695 555.723 257.287L556.639 255.316Z" fill="#4E0697"/>
<path d="M559.076 242.896C559.076 242.896 554.371 228.486 544.394 228.875C544.394 228.875 549.201 244.094 558.241 245.768L559.076 242.896Z" fill="#4E0697"/>
<path d="M560.653 230.774C560.653 230.774 555.533 213.43 547.414 214.766C547.414 214.766 550.957 228.025 560.366 233.477L560.653 230.774Z" fill="#4E0697"/>
<path d="M561.543 216.312C561.543 216.312 556.741 201.86 548.745 201.282C548.745 201.282 552.011 215.503 561.385 220.07L561.543 216.312Z" fill="#4E0697"/>
<path d="M562.511 202.817C562.511 202.817 556.526 188.35 551.248 188.023C551.248 188.023 553.849 202.27 561.999 205.193L562.511 202.817Z" fill="#4E0697"/>
<path d="M563.171 190.265C563.171 190.265 559.49 174.554 554.202 173.248C554.202 173.248 554.924 186.103 562.639 191.442L563.171 190.265Z" fill="#4E0697"/>
<path d="M565.168 173.821C565.168 173.821 561.298 161.294 557.013 159.385C557.013 159.385 557.857 174.154 564.18 176.883L565.168 173.821Z" fill="#4E0697"/>
<path d="M566.822 163.071L567.6 140.986C567.6 140.986 559.588 157.634 566.243 166.946L566.822 163.071Z" fill="#4E0697"/>
<path d="M573.006 141.104C573.006 141.104 578.775 124.978 580.173 124.077C580.173 124.077 568.859 134.541 569.965 148L573.006 141.104Z" fill="#4E0697"/>
<path d="M525.903 314.69C525.903 314.69 536.05 313.364 535.747 327.703C535.747 327.703 526.579 329.198 523.584 317.337L525.903 314.69Z" fill="#4E0697"/>
<path d="M535.451 302.859C535.451 302.859 547.174 302.823 546.201 317.5C546.201 317.5 536.357 319.261 533.111 305.634L535.451 302.859Z" fill="#4E0697"/>
<path d="M541.993 292.288C541.993 292.288 552.636 287.296 559.444 300.182C559.444 300.182 549.615 304.339 541.051 294.371L541.993 292.288Z" fill="#4E0697"/>
<path d="M548.678 279.817C548.678 279.817 559.577 274.508 565.976 287.092C565.976 287.092 554.622 291.003 547.777 281.809L548.678 279.817Z" fill="#4E0697"/>
<path d="M552.534 268.974C552.534 268.974 563.023 258.956 571.394 269.087C571.394 269.087 560.679 277.334 552.053 271.206L552.534 268.974Z" fill="#4E0697"/>
<path d="M556.045 254.973C556.045 254.973 566.596 244.734 574.899 255.444C574.899 255.444 563.058 263.855 555.666 257.123L556.045 254.973Z" fill="#4E0697"/>
<path d="M558.017 242.487C558.017 242.487 566.146 229.689 575.719 232.545C575.719 232.545 567.283 246.096 558.109 245.492L558.017 242.487Z" fill="#4E0697"/>
<path d="M560.412 230.692C560.412 230.692 568.603 214.576 576.354 217.382C576.354 217.382 570.446 229.771 560.202 233.41L560.412 230.692Z" fill="#4E0697"/>
<path d="M560.98 215.472C560.98 215.472 569.401 202.787 577.29 204.338C577.29 204.338 570.405 217.203 560.161 219.143L560.98 215.472Z" fill="#4E0697"/>
<path d="M561.636 202.536C561.636 202.536 568.163 188.299 573.466 188.202C573.466 188.202 570.333 202.336 562.076 204.952L561.636 202.536Z" fill="#4E0697"/>
<path d="M562.916 189.958C562.916 189.958 570.17 175.542 575.622 175.511C575.622 175.511 571.911 187.838 563.157 191.222L562.916 189.958Z" fill="#4E0697"/>
<path d="M564.006 174.722C564.006 174.722 569.432 162.794 573.927 161.443C573.927 161.443 571.214 175.982 564.605 177.886L564.006 174.722Z" fill="#4E0697"/>
<path d="M567.467 162.636L579.594 144.16C579.594 144.16 576.487 162.385 565.695 166.173L567.467 162.636Z" fill="#4E0697"/>
<path d="M575.791 142.594C575.791 142.594 589.884 132.867 590.396 131.295C590.396 131.295 583.229 144.918 569.919 147.324L575.791 142.594Z" fill="#4E0697"/>
<path d="M576.635 138.217C576.635 138.217 592.817 122.659 596.949 122.674C596.949 122.674 583.603 123.284 576.246 137.387L576.635 138.217Z" fill="#4E0697"/>
<path d="M564.165 177.031L564.754 177.108C567.795 153.308 572.228 139.225 577.235 137.5L577.04 136.937C571.731 138.78 567.267 152.648 564.165 177.031Z" fill="#444053"/>
<path d="M559.69 233.948L560.581 234.02C560.771 231.798 560.914 229.525 561.011 227.257C561.861 207.558 563.177 189.466 564.907 175.905L564.395 175.265C562.66 188.857 560.97 207.491 560.12 227.221C560.023 229.474 559.88 231.736 559.69 233.948Z" fill="#444053"/>
<path d="M491.501 341.735C491.654 341.669 507.335 334.666 523.609 317.966C533.144 308.186 541.066 296.954 547.081 284.691C554.607 269.369 559.194 250.54 560.729 232.248L559.803 232.684C556.347 273.741 537.657 301.794 522.795 317.076C506.68 333.626 491.173 340.558 491.02 340.624L491.501 341.735Z" fill="#444053"/>
<path d="M532.102 43.632H40.1966C39.0344 43.632 37.9198 44.0936 37.098 44.9155C36.2761 45.7373 35.8145 46.8519 35.8145 48.0141V60.7817H536.484V48.0141C536.484 46.8519 536.022 45.7373 535.201 44.9155C534.379 44.0936 533.264 43.632 532.102 43.632Z" fill="#3F3D56"/>
<path d="M35.8145 60.7817V348.099C35.8145 350.442 36.7454 352.689 38.4024 354.347C40.0595 356.004 42.307 356.935 44.6504 356.935H527.648C529.992 356.935 532.239 356.004 533.896 354.347C535.553 352.689 536.484 350.442 536.484 348.099V60.7817H35.8145Z" fill="white"/>
<path opacity="0.8" d="M43.745 54.1266C44.8759 54.1266 45.7927 53.2098 45.7927 52.0789C45.7927 50.9479 44.8759 50.0311 43.745 50.0311C42.6141 50.0311 41.6973 50.9479 41.6973 52.0789C41.6973 53.2098 42.6141 54.1266 43.745 54.1266Z" fill="#FA5959"/>
<path opacity="0.8" d="M49.3759 54.1266C50.5068 54.1266 51.4236 53.2098 51.4236 52.0789C51.4236 50.9479 50.5068 50.0311 49.3759 50.0311C48.2449 50.0311 47.3281 50.9479 47.3281 52.0789C47.3281 53.2098 48.2449 54.1266 49.3759 54.1266Z" fill="#FED253"/>
<path opacity="0.8" d="M55.0067 54.1266C56.1376 54.1266 57.0544 53.2098 57.0544 52.0789C57.0544 50.9479 56.1376 50.0311 55.0067 50.0311C53.8758 50.0311 52.959 50.9479 52.959 52.0789C52.959 53.2098 53.8758 54.1266 55.0067 54.1266Z" fill="#8CCF4D"/>
<path opacity="0.05" d="M484.733 108.688H82.3545V285.622H484.733V108.688Z" fill="black"/>
<path d="M481.661 110.03H85.4258V283.063H481.661V110.03Z" fill="white"/>
<path d="M193.444 154.563C185.648 154.563 178.027 156.874 171.544 161.206C165.062 165.537 160.009 171.694 157.026 178.896C154.042 186.099 153.262 194.025 154.783 201.672C156.304 209.318 160.058 216.342 165.571 221.855C171.084 227.367 178.107 231.122 185.754 232.643C193.4 234.164 201.326 233.383 208.529 230.4C215.732 227.416 221.888 222.364 226.22 215.881C230.551 209.399 232.863 201.778 232.863 193.981C232.863 188.805 231.843 183.679 229.862 178.896C227.881 174.114 224.978 169.768 221.317 166.108C217.657 162.448 213.312 159.544 208.529 157.563C203.747 155.582 198.621 154.563 193.444 154.563ZM200.514 194.928V213.594H186.579V194.928C184.651 193.469 183.23 191.44 182.516 189.129C181.803 186.819 181.833 184.342 182.603 182.049C183.373 179.756 184.843 177.764 186.807 176.352C188.771 174.94 191.128 174.18 193.547 174.18C195.965 174.18 198.323 174.94 200.286 176.352C202.25 177.764 203.72 179.756 204.49 182.049C205.26 184.342 205.29 186.819 204.577 189.129C203.864 191.44 202.442 193.469 200.514 194.928Z" fill="#4E0697"/>
<path opacity="0.05" d="M193.444 154.563C185.648 154.563 178.027 156.874 171.544 161.206C165.062 165.537 160.009 171.694 157.026 178.896C154.042 186.099 153.262 194.025 154.783 201.672C156.304 209.318 160.058 216.342 165.571 221.855C171.084 227.367 178.107 231.122 185.754 232.643C193.4 234.164 201.326 233.383 208.529 230.4C215.732 227.416 221.888 222.364 226.22 215.881C230.551 209.399 232.863 201.778 232.863 193.981C232.863 188.805 231.843 183.679 229.862 178.896C227.881 174.114 224.978 169.768 221.317 166.108C217.657 162.448 213.312 159.544 208.529 157.563C203.747 155.582 198.621 154.563 193.444 154.563ZM200.514 194.928V213.594H186.579V194.928C184.651 193.469 183.23 191.44 182.516 189.129C181.803 186.819 181.833 184.342 182.603 182.049C183.373 179.756 184.843 177.764 186.807 176.352C188.771 174.94 191.128 174.18 193.547 174.18C195.965 174.18 198.323 174.94 200.286 176.352C202.25 177.764 203.72 179.756 204.49 182.049C205.26 184.342 205.29 186.819 204.577 189.129C203.864 191.44 202.442 193.469 200.514 194.928Z" fill="black"/>
<path d="M193.444 143.3C183.42 143.3 173.621 146.273 165.287 151.842C156.952 157.41 150.457 165.326 146.621 174.587C142.785 183.847 141.781 194.038 143.737 203.869C145.692 213.7 150.519 222.731 157.607 229.819C164.695 236.906 173.725 241.733 183.557 243.689C193.388 245.644 203.578 244.641 212.839 240.805C222.1 236.969 230.015 230.473 235.584 222.138C241.153 213.804 244.125 204.005 244.125 193.981C244.125 180.54 238.786 167.649 229.281 158.144C219.777 148.64 206.886 143.3 193.444 143.3ZM202.531 195.2V219.194H184.613V195.2C182.133 193.323 180.305 190.714 179.387 187.742C178.469 184.77 178.508 181.585 179.498 178.636C180.488 175.688 182.379 173.124 184.904 171.309C187.43 169.493 190.462 168.516 193.572 168.516C196.682 168.516 199.714 169.493 202.24 171.309C204.765 173.124 206.656 175.688 207.646 178.636C208.636 181.585 208.675 184.77 207.757 187.742C206.839 190.714 205.011 193.323 202.531 195.2Z" fill="#4E0697"/>
<path d="M428.933 187.331H265.114V204.737H428.933V187.331Z" fill="white"/>
<path d="M428.933 219.071H393.609V236.477H428.933V219.071Z" fill="#4E0697"/>
<path d="M281.24 195.773H278.276L280.913 193.142C280.96 193.093 280.986 193.028 280.986 192.96C280.986 192.892 280.96 192.827 280.913 192.778C280.889 192.754 280.861 192.735 280.829 192.722C280.798 192.709 280.765 192.703 280.731 192.703C280.697 192.703 280.664 192.709 280.633 192.722C280.601 192.735 280.573 192.754 280.549 192.778L277.913 195.415V192.446C277.913 192.378 277.886 192.313 277.838 192.265C277.79 192.217 277.725 192.19 277.657 192.19C277.589 192.191 277.525 192.218 277.477 192.266C277.43 192.314 277.402 192.378 277.401 192.446V195.415L274.77 192.763C274.746 192.739 274.717 192.72 274.686 192.707C274.655 192.694 274.622 192.687 274.588 192.687C274.554 192.687 274.521 192.694 274.489 192.707C274.458 192.72 274.43 192.739 274.406 192.763C274.359 192.812 274.332 192.877 274.332 192.945C274.332 193.013 274.359 193.078 274.406 193.126L277.043 195.758H274.073C274.006 195.759 273.942 195.786 273.894 195.834C273.846 195.882 273.819 195.946 273.817 196.014C273.817 196.082 273.844 196.147 273.892 196.195C273.94 196.243 274.005 196.27 274.073 196.27H277.043L274.406 198.906C274.359 198.955 274.332 199.02 274.332 199.088C274.332 199.156 274.359 199.221 274.406 199.27C274.455 199.316 274.52 199.341 274.588 199.341C274.655 199.341 274.72 199.316 274.77 199.27L277.401 196.633V199.597C277.401 199.665 277.428 199.73 277.476 199.778C277.524 199.826 277.589 199.853 277.657 199.853C277.725 199.853 277.79 199.826 277.838 199.778C277.886 199.73 277.913 199.665 277.913 199.597V196.633L280.549 199.27C280.599 199.316 280.664 199.341 280.731 199.341C280.798 199.341 280.863 199.316 280.913 199.27C280.96 199.221 280.986 199.156 280.986 199.088C280.986 199.02 280.96 198.955 280.913 198.906L278.276 196.27H281.24C281.308 196.27 281.373 196.243 281.421 196.195C281.469 196.147 281.496 196.082 281.496 196.014C281.492 195.949 281.464 195.887 281.416 195.843C281.369 195.798 281.306 195.773 281.24 195.773Z" fill="#4E0697"/>
<path d="M291.99 195.773H289.026L291.663 193.142C291.71 193.093 291.736 193.028 291.736 192.96C291.736 192.892 291.71 192.827 291.663 192.778C291.639 192.754 291.611 192.735 291.579 192.722C291.548 192.709 291.515 192.703 291.481 192.703C291.447 192.703 291.414 192.709 291.383 192.722C291.351 192.735 291.323 192.754 291.299 192.778L288.663 195.415V192.446C288.663 192.378 288.636 192.313 288.588 192.265C288.54 192.217 288.475 192.19 288.407 192.19C288.339 192.191 288.275 192.218 288.227 192.266C288.18 192.314 288.152 192.378 288.151 192.446V195.415L285.52 192.763C285.496 192.739 285.467 192.72 285.436 192.707C285.405 192.694 285.372 192.687 285.338 192.687C285.304 192.687 285.271 192.694 285.239 192.707C285.208 192.72 285.18 192.739 285.156 192.763C285.109 192.812 285.082 192.877 285.082 192.945C285.082 193.013 285.109 193.078 285.156 193.126L287.793 195.758H284.823C284.756 195.759 284.692 195.786 284.644 195.834C284.596 195.882 284.569 195.946 284.567 196.014C284.567 196.082 284.594 196.147 284.642 196.195C284.69 196.243 284.755 196.27 284.823 196.27H287.793L285.156 198.906C285.109 198.955 285.082 199.02 285.082 199.088C285.082 199.156 285.109 199.221 285.156 199.27C285.205 199.316 285.27 199.341 285.338 199.341C285.405 199.341 285.47 199.316 285.52 199.27L288.151 196.633V199.597C288.151 199.665 288.178 199.73 288.226 199.778C288.274 199.826 288.339 199.853 288.407 199.853C288.475 199.853 288.54 199.826 288.588 199.778C288.636 199.73 288.663 199.665 288.663 199.597V196.633L291.299 199.27C291.349 199.316 291.414 199.341 291.481 199.341C291.548 199.341 291.613 199.316 291.663 199.27C291.71 199.221 291.736 199.156 291.736 199.088C291.736 199.02 291.71 198.955 291.663 198.906L289.026 196.27H291.99C292.058 196.27 292.123 196.243 292.171 196.195C292.219 196.147 292.246 196.082 292.246 196.014C292.242 195.949 292.214 195.887 292.166 195.843C292.119 195.798 292.056 195.773 291.99 195.773Z" fill="#4E0697"/>
<path d="M302.741 195.773H299.777L302.414 193.142C302.461 193.093 302.487 193.028 302.487 192.96C302.487 192.892 302.461 192.827 302.414 192.778C302.39 192.754 302.362 192.735 302.33 192.722C302.299 192.709 302.266 192.703 302.232 192.703C302.198 192.703 302.165 192.709 302.134 192.722C302.102 192.735 302.074 192.754 302.05 192.778L299.414 195.415V192.446C299.414 192.378 299.387 192.313 299.339 192.265C299.291 192.217 299.226 192.19 299.158 192.19C299.09 192.191 299.026 192.218 298.978 192.266C298.931 192.314 298.903 192.378 298.902 192.446V195.415L296.271 192.763C296.247 192.739 296.218 192.72 296.187 192.707C296.156 192.694 296.123 192.687 296.089 192.687C296.055 192.687 296.022 192.694 295.99 192.707C295.959 192.72 295.931 192.739 295.907 192.763C295.86 192.812 295.833 192.877 295.833 192.945C295.833 193.013 295.86 193.078 295.907 193.126L298.544 195.758H295.574C295.507 195.759 295.442 195.786 295.395 195.834C295.347 195.882 295.32 195.946 295.318 196.014C295.318 196.082 295.345 196.147 295.393 196.195C295.441 196.243 295.506 196.27 295.574 196.27H298.544L295.907 198.906C295.86 198.955 295.833 199.02 295.833 199.088C295.833 199.156 295.86 199.221 295.907 199.27C295.956 199.316 296.021 199.341 296.089 199.341C296.156 199.341 296.221 199.316 296.271 199.27L298.902 196.633V199.597C298.902 199.665 298.929 199.73 298.977 199.778C299.025 199.826 299.09 199.853 299.158 199.853C299.226 199.853 299.291 199.826 299.339 199.778C299.387 199.73 299.414 199.665 299.414 199.597V196.633L302.05 199.27C302.1 199.316 302.165 199.341 302.232 199.341C302.299 199.341 302.364 199.316 302.414 199.27C302.461 199.221 302.487 199.156 302.487 199.088C302.487 199.02 302.461 198.955 302.414 198.906L299.777 196.27H302.741C302.809 196.27 302.874 196.243 302.922 196.195C302.97 196.147 302.997 196.082 302.997 196.014C302.993 195.949 302.965 195.887 302.917 195.843C302.87 195.798 302.807 195.773 302.741 195.773Z" fill="#4E0697"/>
<path d="M313.492 195.773H310.528L313.165 193.142C313.212 193.093 313.238 193.028 313.238 192.96C313.238 192.892 313.212 192.827 313.165 192.778C313.141 192.754 313.113 192.735 313.081 192.722C313.05 192.709 313.017 192.703 312.983 192.703C312.949 192.703 312.916 192.709 312.885 192.722C312.853 192.735 312.825 192.754 312.801 192.778L310.165 195.415V192.446C310.165 192.378 310.138 192.313 310.09 192.265C310.042 192.217 309.977 192.19 309.909 192.19C309.841 192.191 309.777 192.218 309.729 192.266C309.682 192.314 309.654 192.378 309.653 192.446V195.415L307.022 192.763C306.998 192.739 306.969 192.72 306.938 192.707C306.907 192.694 306.874 192.687 306.84 192.687C306.806 192.687 306.773 192.694 306.741 192.707C306.71 192.72 306.682 192.739 306.658 192.763C306.611 192.812 306.584 192.877 306.584 192.945C306.584 193.013 306.611 193.078 306.658 193.126L309.295 195.758H306.325C306.258 195.759 306.193 195.786 306.146 195.834C306.098 195.882 306.071 195.946 306.069 196.014C306.069 196.082 306.096 196.147 306.144 196.195C306.192 196.243 306.257 196.27 306.325 196.27H309.295L306.658 198.906C306.611 198.955 306.584 199.02 306.584 199.088C306.584 199.156 306.611 199.221 306.658 199.27C306.707 199.316 306.772 199.341 306.84 199.341C306.907 199.341 306.972 199.316 307.022 199.27L309.653 196.633V199.597C309.653 199.665 309.68 199.73 309.728 199.778C309.776 199.826 309.841 199.853 309.909 199.853C309.977 199.853 310.042 199.826 310.09 199.778C310.138 199.73 310.165 199.665 310.165 199.597V196.633L312.801 199.27C312.851 199.316 312.915 199.341 312.983 199.341C313.05 199.341 313.115 199.316 313.165 199.27C313.212 199.221 313.238 199.156 313.238 199.088C313.238 199.02 313.212 198.955 313.165 198.906L310.528 196.27H313.492C313.56 196.27 313.625 196.243 313.673 196.195C313.721 196.147 313.748 196.082 313.748 196.014C313.744 195.949 313.716 195.887 313.668 195.843C313.621 195.798 313.558 195.773 313.492 195.773Z" fill="#4E0697"/>
<path d="M324.242 195.773H321.278L323.915 193.142C323.962 193.093 323.988 193.028 323.988 192.96C323.988 192.892 323.962 192.827 323.915 192.778C323.891 192.754 323.863 192.735 323.831 192.722C323.8 192.709 323.767 192.703 323.733 192.703C323.699 192.703 323.666 192.709 323.635 192.722C323.603 192.735 323.575 192.754 323.551 192.778L320.915 195.415V192.446C320.915 192.378 320.888 192.313 320.84 192.265C320.792 192.217 320.727 192.19 320.659 192.19C320.591 192.191 320.527 192.218 320.479 192.266C320.432 192.314 320.404 192.378 320.403 192.446V195.415L317.772 192.763C317.748 192.739 317.719 192.72 317.688 192.707C317.657 192.694 317.624 192.687 317.59 192.687C317.556 192.687 317.523 192.694 317.491 192.707C317.46 192.72 317.432 192.739 317.408 192.763C317.361 192.812 317.334 192.877 317.334 192.945C317.334 193.013 317.361 193.078 317.408 193.126L320.045 195.758H317.075C317.008 195.759 316.943 195.786 316.896 195.834C316.848 195.882 316.821 195.946 316.819 196.014C316.819 196.082 316.846 196.147 316.894 196.195C316.942 196.243 317.007 196.27 317.075 196.27H320.045L317.408 198.906C317.361 198.955 317.334 199.02 317.334 199.088C317.334 199.156 317.361 199.221 317.408 199.27C317.457 199.316 317.522 199.341 317.59 199.341C317.657 199.341 317.722 199.316 317.772 199.27L320.403 196.633V199.597C320.403 199.665 320.43 199.73 320.478 199.778C320.526 199.826 320.591 199.853 320.659 199.853C320.727 199.853 320.792 199.826 320.84 199.778C320.888 199.73 320.915 199.665 320.915 199.597V196.633L323.551 199.27C323.601 199.316 323.665 199.341 323.733 199.341C323.8 199.341 323.865 199.316 323.915 199.27C323.962 199.221 323.988 199.156 323.988 199.088C323.988 199.02 323.962 198.955 323.915 198.906L321.278 196.27H324.242C324.31 196.27 324.375 196.243 324.423 196.195C324.471 196.147 324.498 196.082 324.498 196.014C324.494 195.949 324.466 195.887 324.418 195.843C324.371 195.798 324.308 195.773 324.242 195.773Z" fill="#4E0697"/>
<path d="M334.993 195.773H332.029L334.666 193.142C334.713 193.093 334.739 193.028 334.739 192.96C334.739 192.892 334.713 192.827 334.666 192.778C334.642 192.754 334.614 192.735 334.582 192.722C334.551 192.709 334.518 192.703 334.484 192.703C334.45 192.703 334.417 192.709 334.386 192.722C334.354 192.735 334.326 192.754 334.302 192.778L331.666 195.415V192.446C331.666 192.378 331.639 192.313 331.591 192.265C331.543 192.217 331.478 192.19 331.41 192.19C331.342 192.191 331.278 192.218 331.23 192.266C331.183 192.314 331.155 192.378 331.154 192.446V195.415L328.522 192.763C328.499 192.739 328.47 192.72 328.439 192.707C328.408 192.694 328.375 192.687 328.341 192.687C328.307 192.687 328.274 192.694 328.242 192.707C328.211 192.72 328.183 192.739 328.159 192.763C328.112 192.812 328.085 192.877 328.085 192.945C328.085 193.013 328.112 193.078 328.159 193.126L330.795 195.758H327.826C327.759 195.759 327.694 195.786 327.647 195.834C327.599 195.882 327.572 195.946 327.57 196.014C327.57 196.082 327.597 196.147 327.645 196.195C327.693 196.243 327.758 196.27 327.826 196.27H330.795L328.159 198.906C328.112 198.955 328.085 199.02 328.085 199.088C328.085 199.156 328.112 199.221 328.159 199.27C328.208 199.316 328.273 199.341 328.341 199.341C328.408 199.341 328.473 199.316 328.522 199.27L331.154 196.633V199.597C331.154 199.665 331.181 199.73 331.229 199.778C331.277 199.826 331.342 199.853 331.41 199.853C331.478 199.853 331.543 199.826 331.591 199.778C331.639 199.73 331.666 199.665 331.666 199.597V196.633L334.302 199.27C334.352 199.316 334.416 199.341 334.484 199.341C334.551 199.341 334.616 199.316 334.666 199.27C334.713 199.221 334.739 199.156 334.739 199.088C334.739 199.02 334.713 198.955 334.666 198.906L332.029 196.27H334.993C335.061 196.27 335.126 196.243 335.174 196.195C335.222 196.147 335.249 196.082 335.249 196.014C335.245 195.949 335.217 195.887 335.169 195.843C335.122 195.798 335.059 195.773 334.993 195.773Z" fill="#4E0697"/>
<path d="M345.743 195.773H342.779L345.416 193.142C345.463 193.093 345.489 193.028 345.489 192.96C345.489 192.892 345.463 192.827 345.416 192.778C345.392 192.754 345.364 192.735 345.332 192.722C345.301 192.709 345.268 192.703 345.234 192.703C345.2 192.703 345.167 192.709 345.136 192.722C345.104 192.735 345.076 192.754 345.052 192.778L342.416 195.415V192.446C342.416 192.378 342.389 192.313 342.341 192.265C342.293 192.217 342.228 192.19 342.16 192.19C342.092 192.191 342.028 192.218 341.98 192.266C341.933 192.314 341.905 192.378 341.904 192.446V195.415L339.272 192.763C339.249 192.739 339.22 192.72 339.189 192.707C339.158 192.694 339.125 192.687 339.091 192.687C339.057 192.687 339.024 192.694 338.992 192.707C338.961 192.72 338.933 192.739 338.909 192.763C338.862 192.812 338.835 192.877 338.835 192.945C338.835 193.013 338.862 193.078 338.909 193.126L341.545 195.758H338.576C338.509 195.759 338.444 195.786 338.397 195.834C338.349 195.882 338.322 195.946 338.32 196.014C338.32 196.082 338.347 196.147 338.395 196.195C338.443 196.243 338.508 196.27 338.576 196.27H341.545L338.909 198.906C338.862 198.955 338.835 199.02 338.835 199.088C338.835 199.156 338.862 199.221 338.909 199.27C338.958 199.316 339.023 199.341 339.091 199.341C339.158 199.341 339.223 199.316 339.272 199.27L341.904 196.633V199.597C341.904 199.665 341.931 199.73 341.979 199.778C342.027 199.826 342.092 199.853 342.16 199.853C342.228 199.853 342.293 199.826 342.341 199.778C342.389 199.73 342.416 199.665 342.416 199.597V196.633L345.052 199.27C345.102 199.316 345.166 199.341 345.234 199.341C345.301 199.341 345.366 199.316 345.416 199.27C345.463 199.221 345.489 199.156 345.489 199.088C345.489 199.02 345.463 198.955 345.416 198.906L342.779 196.27H345.743C345.811 196.27 345.876 196.243 345.924 196.195C345.972 196.147 345.999 196.082 345.999 196.014C345.995 195.949 345.967 195.887 345.919 195.843C345.872 195.798 345.809 195.773 345.743 195.773Z" fill="#4E0697"/>
<path d="M356.494 195.773H353.53L356.167 193.142C356.214 193.093 356.24 193.028 356.24 192.96C356.24 192.892 356.214 192.827 356.167 192.778C356.143 192.754 356.115 192.735 356.083 192.722C356.052 192.709 356.019 192.703 355.985 192.703C355.951 192.703 355.918 192.709 355.886 192.722C355.855 192.735 355.827 192.754 355.803 192.778L353.167 195.415V192.446C353.167 192.378 353.14 192.313 353.092 192.265C353.044 192.217 352.979 192.19 352.911 192.19C352.843 192.191 352.779 192.218 352.731 192.266C352.683 192.314 352.656 192.378 352.655 192.446V195.415L350.023 192.763C350 192.739 349.971 192.72 349.94 192.707C349.909 192.694 349.876 192.687 349.842 192.687C349.808 192.687 349.774 192.694 349.743 192.707C349.712 192.72 349.684 192.739 349.66 192.763C349.613 192.812 349.586 192.877 349.586 192.945C349.586 193.013 349.613 193.078 349.66 193.126L352.296 195.758H349.327C349.26 195.759 349.195 195.786 349.148 195.834C349.1 195.882 349.073 195.946 349.071 196.014C349.071 196.082 349.098 196.147 349.146 196.195C349.194 196.243 349.259 196.27 349.327 196.27H352.296L349.66 198.906C349.613 198.955 349.586 199.02 349.586 199.088C349.586 199.156 349.613 199.221 349.66 199.27C349.709 199.316 349.774 199.341 349.842 199.341C349.909 199.341 349.974 199.316 350.023 199.27L352.655 196.633V199.597C352.655 199.665 352.682 199.73 352.73 199.778C352.778 199.826 352.843 199.853 352.911 199.853C352.979 199.853 353.044 199.826 353.092 199.778C353.14 199.73 353.167 199.665 353.167 199.597V196.633L355.803 199.27C355.852 199.316 355.917 199.341 355.985 199.341C356.052 199.341 356.117 199.316 356.167 199.27C356.214 199.221 356.24 199.156 356.24 199.088C356.24 199.02 356.214 198.955 356.167 198.906L353.53 196.27H356.494C356.562 196.27 356.627 196.243 356.675 196.195C356.723 196.147 356.75 196.082 356.75 196.014C356.746 195.949 356.718 195.887 356.67 195.843C356.622 195.798 356.56 195.773 356.494 195.773Z" fill="#4E0697"/>
<path d="M367.245 195.773H364.281L366.918 193.142C366.965 193.093 366.991 193.028 366.991 192.96C366.991 192.892 366.965 192.827 366.918 192.778C366.894 192.754 366.866 192.735 366.834 192.722C366.803 192.709 366.77 192.703 366.736 192.703C366.702 192.703 366.669 192.709 366.637 192.722C366.606 192.735 366.578 192.754 366.554 192.778L363.918 195.415V192.446C363.918 192.378 363.891 192.313 363.843 192.265C363.795 192.217 363.73 192.19 363.662 192.19C363.594 192.191 363.53 192.218 363.482 192.266C363.434 192.314 363.407 192.378 363.406 192.446V195.415L360.774 192.763C360.751 192.739 360.722 192.72 360.691 192.707C360.66 192.694 360.626 192.687 360.593 192.687C360.559 192.687 360.525 192.694 360.494 192.707C360.463 192.72 360.435 192.739 360.411 192.763C360.364 192.812 360.337 192.877 360.337 192.945C360.337 193.013 360.364 193.078 360.411 193.126L363.047 195.758H360.078C360.011 195.759 359.946 195.786 359.899 195.834C359.851 195.882 359.824 195.946 359.822 196.014C359.822 196.082 359.849 196.147 359.897 196.195C359.945 196.243 360.01 196.27 360.078 196.27H363.047L360.411 198.906C360.364 198.955 360.337 199.02 360.337 199.088C360.337 199.156 360.364 199.221 360.411 199.27C360.46 199.316 360.525 199.341 360.593 199.341C360.66 199.341 360.725 199.316 360.774 199.27L363.406 196.633V199.597C363.406 199.665 363.433 199.73 363.481 199.778C363.529 199.826 363.594 199.853 363.662 199.853C363.73 199.853 363.795 199.826 363.843 199.778C363.891 199.73 363.918 199.665 363.918 199.597V196.633L366.554 199.27C366.603 199.316 366.668 199.341 366.736 199.341C366.803 199.341 366.868 199.316 366.918 199.27C366.965 199.221 366.991 199.156 366.991 199.088C366.991 199.02 366.965 198.955 366.918 198.906L364.281 196.27H367.245C367.313 196.27 367.378 196.243 367.426 196.195C367.474 196.147 367.501 196.082 367.501 196.014C367.497 195.949 367.469 195.887 367.421 195.843C367.373 195.798 367.311 195.773 367.245 195.773Z" fill="#4E0697"/>
<path d="M377.995 195.773H375.031L377.668 193.142C377.715 193.093 377.741 193.028 377.741 192.96C377.741 192.892 377.715 192.827 377.668 192.778C377.644 192.754 377.616 192.735 377.584 192.722C377.553 192.709 377.52 192.703 377.486 192.703C377.452 192.703 377.419 192.709 377.387 192.722C377.356 192.735 377.328 192.754 377.304 192.778L374.668 195.415V192.446C374.668 192.378 374.641 192.313 374.593 192.265C374.545 192.217 374.48 192.19 374.412 192.19C374.344 192.191 374.28 192.218 374.232 192.266C374.184 192.314 374.157 192.378 374.156 192.446V195.415L371.524 192.763C371.501 192.739 371.472 192.72 371.441 192.707C371.41 192.694 371.376 192.687 371.343 192.687C371.309 192.687 371.275 192.694 371.244 192.707C371.213 192.72 371.185 192.739 371.161 192.763C371.114 192.812 371.087 192.877 371.087 192.945C371.087 193.013 371.114 193.078 371.161 193.126L373.797 195.758H370.828C370.761 195.759 370.696 195.786 370.649 195.834C370.601 195.882 370.574 195.946 370.572 196.014C370.572 196.082 370.599 196.147 370.647 196.195C370.695 196.243 370.76 196.27 370.828 196.27H373.797L371.161 198.906C371.114 198.955 371.087 199.02 371.087 199.088C371.087 199.156 371.114 199.221 371.161 199.27C371.21 199.316 371.275 199.341 371.343 199.341C371.41 199.341 371.475 199.316 371.524 199.27L374.156 196.633V199.597C374.156 199.665 374.183 199.73 374.231 199.778C374.279 199.826 374.344 199.853 374.412 199.853C374.48 199.853 374.545 199.826 374.593 199.778C374.641 199.73 374.668 199.665 374.668 199.597V196.633L377.304 199.27C377.353 199.316 377.418 199.341 377.486 199.341C377.553 199.341 377.618 199.316 377.668 199.27C377.715 199.221 377.741 199.156 377.741 199.088C377.741 199.02 377.715 198.955 377.668 198.906L375.031 196.27H377.995C378.063 196.27 378.128 196.243 378.176 196.195C378.224 196.147 378.251 196.082 378.251 196.014C378.247 195.949 378.219 195.887 378.171 195.843C378.123 195.798 378.061 195.773 377.995 195.773Z" fill="#4E0697"/>
<path d="M388.746 195.773H385.782L388.419 193.142C388.466 193.093 388.492 193.028 388.492 192.96C388.492 192.892 388.466 192.827 388.419 192.778C388.395 192.754 388.367 192.735 388.335 192.722C388.304 192.709 388.271 192.703 388.237 192.703C388.203 192.703 388.17 192.709 388.138 192.722C388.107 192.735 388.079 192.754 388.055 192.778L385.419 195.415V192.446C385.419 192.378 385.392 192.313 385.344 192.265C385.296 192.217 385.231 192.19 385.163 192.19C385.095 192.191 385.031 192.218 384.983 192.266C384.935 192.314 384.908 192.378 384.907 192.446V195.415L382.275 192.763C382.252 192.739 382.223 192.72 382.192 192.707C382.161 192.694 382.127 192.687 382.094 192.687C382.06 192.687 382.026 192.694 381.995 192.707C381.964 192.72 381.936 192.739 381.912 192.763C381.865 192.812 381.838 192.877 381.838 192.945C381.838 193.013 381.865 193.078 381.912 193.126L384.548 195.758H381.579C381.512 195.759 381.447 195.786 381.4 195.834C381.352 195.882 381.325 195.946 381.323 196.014C381.323 196.082 381.35 196.147 381.398 196.195C381.446 196.243 381.511 196.27 381.579 196.27H384.548L381.912 198.906C381.865 198.955 381.838 199.02 381.838 199.088C381.838 199.156 381.865 199.221 381.912 199.27C381.961 199.316 382.026 199.341 382.094 199.341C382.161 199.341 382.226 199.316 382.275 199.27L384.907 196.633V199.597C384.907 199.665 384.934 199.73 384.982 199.778C385.03 199.826 385.095 199.853 385.163 199.853C385.231 199.853 385.296 199.826 385.344 199.778C385.392 199.73 385.419 199.665 385.419 199.597V196.633L388.055 199.27C388.104 199.316 388.169 199.341 388.237 199.341C388.304 199.341 388.369 199.316 388.419 199.27C388.466 199.221 388.492 199.156 388.492 199.088C388.492 199.02 388.466 198.955 388.419 198.906L385.782 196.27H388.746C388.814 196.27 388.879 196.243 388.927 196.195C388.975 196.147 389.002 196.082 389.002 196.014C388.998 195.949 388.97 195.887 388.922 195.843C388.874 195.798 388.812 195.773 388.746 195.773Z" fill="#4E0697"/>
<path d="M471.162 258.05C471.147 257.431 471.07 256.815 470.931 256.212C470.47 254.482 469.431 252.388 467.721 251.866C465.956 251.325 464.251 250.605 462.633 249.715C462.326 244.228 463.585 238.612 462.213 233.293C461.701 231.347 460.856 229.484 460.631 227.492C460.35 225.015 461.025 222.373 460.037 220.09C459.259 218.288 457.549 217.018 455.711 216.353C453.874 215.687 451.892 215.508 449.942 215.329C447.485 215.129 439.529 214.187 436.755 216.384C436.563 216.532 436.391 216.704 436.243 216.895C436.181 216.98 436.127 217.069 436.079 217.162L436.053 217.203C435.998 217.309 435.951 217.421 435.915 217.535C435.876 217.661 435.847 217.789 435.828 217.919C435.828 217.96 435.828 218.001 435.828 218.042C435.828 218.083 435.828 218.221 435.828 218.313V218.452C435.828 218.544 435.828 218.636 435.828 218.733C435.828 218.831 435.828 218.805 435.828 218.841C435.864 219.302 435.93 219.762 435.93 220.218C435.936 220.445 435.915 220.671 435.869 220.894C435.698 221.497 435.41 222.061 435.019 222.552L434.927 222.685C434.871 222.767 434.814 222.844 434.763 222.926C434.712 223.008 434.671 223.069 434.63 223.141C434.589 223.213 434.548 223.259 434.512 223.325C434.463 223.41 434.418 223.497 434.379 223.586C434.379 223.638 434.323 223.684 434.302 223.735C434.238 223.873 434.187 224.017 434.149 224.165C434.029 224.61 434.018 225.077 434.118 225.527C434.256 226.101 434.493 226.647 434.819 227.139C434.947 227.349 435.086 227.554 435.229 227.759L435.587 228.245C435.52 228.72 435.485 229.199 435.48 229.678C435.48 231.281 435.844 232.864 436.545 234.305C437.245 235.747 438.264 237.011 439.524 238.002C439.727 240.164 439.705 242.341 439.458 244.499C439.411 244.949 439.355 245.405 439.294 245.855C439.232 246.306 439.186 246.603 439.125 246.977C438.376 247.084 437.612 247.026 436.888 246.808C436.553 246.659 436.212 246.527 435.864 246.413C434.374 246.04 432.854 247.524 431.379 247.074C431.379 247.146 431.338 247.212 431.313 247.279C431.005 247.087 430.651 246.983 430.289 246.977C429.413 246.936 428.702 246.301 428.067 245.702L426.117 243.864C425.989 243.752 425.876 243.624 425.779 243.485C425.674 243.286 425.595 243.075 425.543 242.856C425.216 241.796 424.422 240.951 423.654 240.147C423.509 239.964 423.316 239.824 423.096 239.743C423.011 239.73 422.925 239.73 422.84 239.743C422.788 239.671 422.732 239.603 422.671 239.538C422.539 239.386 422.397 239.242 422.246 239.108C421.315 238.248 421.223 237.511 420.414 236.549C419.708 235.631 419.068 234.664 418.499 233.656C418.433 233.119 418.34 232.566 418.228 232.008C417.97 230.73 417.594 229.479 417.107 228.271L416.083 226.003L415.965 226.12C415.223 225.015 414.429 224.411 413.718 224.554C412.525 224.8 411.936 227.114 412.125 230.139L412.535 233.211C412.535 233.288 412.571 233.364 412.591 233.441C412.518 233.805 412.48 234.175 412.479 234.547C412.479 234.977 412.878 235.294 413.088 235.678C413.424 236.198 413.602 236.805 413.6 237.424C413.574 237.644 413.508 237.854 413.497 238.069C413.525 238.55 413.693 239.012 413.979 239.4L416.538 243.7L417.05 244.601L417.081 244.642C417.243 244.957 417.478 245.227 417.767 245.431C417.867 246.507 418.153 247.559 418.612 248.538C418.699 248.733 418.796 248.917 418.898 249.101C419.587 250.232 420.397 251.285 421.315 252.239L422.533 253.606C423.736 254.947 424.939 256.294 426.245 257.533C426.712 258.03 427.276 258.425 427.903 258.695C428.21 258.817 428.544 258.857 428.871 258.809C429.199 258.762 429.507 258.629 429.767 258.423C429.767 259.058 429.767 259.693 429.767 260.328C429.957 260.339 430.14 260.402 430.298 260.508C430.456 260.614 430.583 260.761 430.665 260.932C430.748 261.104 430.783 261.295 430.767 261.484C430.751 261.674 430.685 261.856 430.576 262.012C429.5 264.771 428.415 267.556 426.787 270.029C427.936 270.709 429.002 271.522 429.961 272.45C430.584 273.14 431.138 273.89 431.615 274.687C431.661 275.066 431.697 275.44 431.717 275.814C432.096 281.916 429.736 287.972 427.622 293.788C427.012 295.436 426.347 297.161 426.398 298.876C425.997 299.124 425.614 299.399 425.251 299.7C425.671 300.796 425.507 301.774 425.461 302.946C425.446 303.649 425.302 304.343 425.036 304.994C424.814 305.445 424.568 305.884 424.299 306.31C422.973 308.649 422.682 311.429 422.415 314.101C422.257 315.714 422.881 317.685 422.149 319.128C420.885 321.606 419.764 324.248 419.589 327.002C419.583 327.622 419.504 328.238 419.354 328.84C419.195 329.352 418.914 329.787 418.77 330.288C418.623 330.961 418.588 331.653 418.668 332.336C418.765 334.79 418.401 337.24 417.593 339.56C416.953 341.387 416.247 343.343 416.748 345.221C415.513 346.519 414.75 348.194 414.583 349.977C414.57 350.434 414.515 350.888 414.419 351.334C414.262 351.79 414.056 352.228 413.805 352.639C412.774 354.516 412.292 356.645 412.412 358.783C410.876 360.866 410.108 363.436 409.653 365.991C409.197 368.545 408.998 371.146 408.414 373.67C407.636 377.007 406.228 380.381 405.952 383.801C404.293 384.86 403.576 386.913 403.259 388.853C402.941 390.794 402.89 392.831 402.076 394.623C401.656 395.555 401.052 396.389 400.653 397.341C400.373 398.099 400.167 398.883 400.039 399.681C399.793 400.93 399.578 402.322 399.88 403.52C399.446 403.98 398.939 404.366 398.38 404.662C398.462 404.345 398.529 404.027 398.585 403.705C397.264 404.903 394.868 404.483 393.814 405.921C393.497 406.385 393.373 406.954 393.469 407.507C393.565 408.06 393.872 408.555 394.326 408.885C394.656 409.086 395.012 409.24 395.385 409.341C397.945 410.16 400.576 410.984 403.208 410.549C403.519 410.516 403.82 410.42 404.093 410.268C404.436 410.016 404.717 409.69 404.917 409.315C405.312 408.691 405.706 408.066 406.095 407.442C407.038 407.723 407.997 407.947 408.967 408.112C409.064 408.931 409.136 409.751 409.172 410.57C409.684 410.672 410.37 410.703 410.61 410.227C410.683 410.047 410.713 409.852 410.697 409.658C410.697 409.295 410.748 408.814 410.779 408.322H410.882C412.443 408.385 413.997 408.071 415.412 407.406C414.864 402.87 416.671 398.437 418.238 394.147C419.892 389.632 421.31 385.034 422.738 380.437C423.762 377.202 424.893 374.069 425.896 370.828C427.159 366.733 428.427 362.637 429.7 358.542C430.253 356.74 430.811 354.958 431.446 353.167C432.782 349.541 434.368 346.012 436.191 342.606C436.703 341.638 437.215 340.681 437.635 339.677C438.147 338.454 438.51 337.174 438.92 335.909C439.812 333.315 440.887 330.787 442.135 328.343C442.171 328.277 442.196 328.215 442.232 328.154C442.647 329.848 443.062 331.568 443.338 333.273C443.712 335.363 443.742 337.501 443.425 339.6C443.179 341.029 442.713 342.442 442.77 343.89C442.847 345.892 443.916 347.709 444.444 349.639C444.784 351.084 444.976 352.559 445.017 354.042C445.16 356.346 446.41 358.931 445.529 361.066C442.79 367.828 444.116 375.466 442.555 382.567C441.751 386.212 439.289 389.637 439.483 393.364C439.62 396.009 439.852 398.647 440.179 401.278C440.258 402.108 440.475 402.92 440.819 403.679C441.024 404.079 441.258 404.462 441.521 404.826C441.295 404.913 441.106 405.143 440.942 405.629C440.522 406.909 440.942 408.496 442.079 409.213C442.542 409.461 443.041 409.633 443.558 409.725C444.254 409.923 444.974 410.023 445.698 410.022C445.923 410.01 446.147 409.982 446.369 409.94C447.16 410.272 447.968 410.563 448.79 410.81C448.79 411.02 448.831 411.23 448.857 411.44C448.858 411.55 448.882 411.658 448.928 411.757C448.974 411.857 449.04 411.946 449.123 412.018C449.251 412.078 449.392 412.103 449.532 412.09H452.312C452.312 411.86 452.312 411.624 452.312 411.394C452.63 411.427 452.952 411.393 453.256 411.294C453.56 411.196 453.84 411.034 454.078 410.82C454.325 410.507 454.499 410.144 454.59 409.756C455.348 407.186 456.1 404.614 456.848 402.041C457.744 399.196 458.117 396.213 457.949 393.236C456.961 383.801 459.131 374.335 458.425 364.875C457.999 359.188 458.292 353.471 459.295 347.858C459.525 346.588 459.807 345.298 459.909 344.034C460.134 341.648 459.858 339.237 460.027 336.867C460.083 336.037 460.196 335.213 460.298 334.389C461 329.273 461.367 324.118 461.399 318.954C461.383 317.243 461.277 315.535 461.082 313.835C461.615 313.699 462.1 313.415 462.479 313.016C462.935 312.422 462.817 311.588 462.812 310.83C462.812 309.018 463.575 307.308 464.189 305.598C464.977 303.24 465.624 300.836 466.124 298.4C466.653 296.437 466.942 294.417 466.984 292.385C466.984 292.18 466.974 291.975 466.953 291.771C467.146 291.637 467.307 291.462 467.424 291.259C467.558 290.959 467.641 290.639 467.67 290.312C467.854 289.006 468.044 287.696 468.228 286.385C468.365 285.447 468.499 284.51 468.633 283.575L470.261 272.215C470.399 271.227 470.542 270.244 470.68 269.261L471.105 266.322C471.151 265.974 471.202 265.626 471.238 265.299C472.487 263.21 471.295 260.425 471.162 258.05ZM457.58 300.581C456.976 299.148 456.413 297.678 456.556 296.132H456.5C456.634 295.657 456.611 295.15 456.433 294.689C456.275 294.315 455.998 293.998 455.829 293.624C455.648 293.168 455.554 292.681 455.553 292.19C455.426 289.077 455.671 285.959 456.285 282.904C456.351 282.546 456.423 282.182 456.49 281.824C456.704 281.7 456.901 281.546 457.073 281.368C457.342 281.061 457.565 280.716 457.734 280.344C458.312 279.182 458.839 278 459.326 276.797C459.484 276.408 459.715 275.957 460.109 275.86C460.027 278.855 460.334 281.911 459.116 284.614C458.884 285.05 458.712 285.515 458.604 285.996C458.491 286.759 458.809 287.532 458.696 288.289C458.64 288.684 458.471 289.047 458.404 289.436C458.354 289.627 458.354 289.828 458.407 290.019C458.459 290.209 458.56 290.383 458.701 290.522C458.769 290.569 458.843 290.607 458.921 290.634C458.89 290.839 458.865 291.049 458.844 291.248C458.803 291.668 458.783 292.062 458.757 292.308C458.64 293.56 458.593 294.818 458.619 296.076C458.619 297.433 458.67 298.789 458.65 300.171C458.669 300.568 458.602 300.965 458.455 301.334C458.354 301.524 458.223 301.697 458.066 301.845C457.918 301.385 457.754 300.98 457.58 300.581Z" fill="url(#paint0_linear)"/>
<path d="M417.169 241.181C418.732 240.861 419.263 237.016 418.357 232.593C417.45 228.169 415.449 224.843 413.887 225.163C412.325 225.483 411.793 229.328 412.7 233.752C413.606 238.175 415.607 241.501 417.169 241.181Z" fill="#FBBEBE"/>
<path d="M441.025 405.727C440.605 406.996 441.025 408.583 442.161 409.274C442.622 409.52 443.117 409.693 443.63 409.786C444.325 409.983 445.043 410.081 445.765 410.078C446.651 410.037 447.501 409.689 448.386 409.566C448.488 409.541 448.597 409.555 448.688 409.607C448.733 409.655 448.766 409.712 448.785 409.774C448.805 409.836 448.81 409.901 448.801 409.966C448.81 410.469 448.848 410.971 448.913 411.471C448.914 411.58 448.938 411.689 448.984 411.789C449.03 411.888 449.097 411.977 449.18 412.049C449.307 412.109 449.449 412.133 449.589 412.121H452.364C452.427 409.683 452.16 407.248 451.57 404.882C451.532 404.701 451.463 404.528 451.366 404.37C451.13 404.112 450.821 403.934 450.48 403.858C449.802 403.576 449.069 403.448 448.335 403.485C447.439 403.602 446.692 404.181 445.929 404.662C445.166 405.143 444.127 405.568 443.2 405.322C442.274 405.077 441.501 404.304 441.025 405.727Z" fill="#3F3D56"/>
<path d="M400.284 403.479C399.504 404.315 398.548 404.965 397.484 405.384L397.013 405.609C396.948 405.634 396.892 405.679 396.854 405.737C396.845 405.777 396.845 405.818 396.854 405.858C396.863 405.898 396.881 405.935 396.906 405.967C397.298 406.574 397.877 407.035 398.555 407.282C399.233 407.529 399.974 407.547 400.663 407.334C400.968 407.258 401.25 407.111 401.487 406.904C401.878 406.441 402.101 405.861 402.122 405.256C402.277 404.632 402.251 403.976 402.045 403.367C401.334 401.764 401.073 402.491 400.284 403.479Z" fill="#FBBEBE"/>
<path d="M410.923 409.786C410.939 409.98 410.909 410.175 410.836 410.355C410.596 410.826 409.925 410.8 409.403 410.698C409.324 408.961 409.113 407.232 408.773 405.527C407.78 405.481 407.063 406.423 406.531 407.268L405.159 409.443C404.96 409.818 404.681 410.143 404.34 410.396C404.065 410.546 403.765 410.641 403.454 410.677C400.833 411.112 398.186 410.288 395.657 409.469C395.285 409.369 394.928 409.217 394.598 409.019C394.146 408.687 393.841 408.194 393.746 407.642C393.65 407.091 393.772 406.523 394.086 406.06C395.146 404.626 397.526 405.036 398.847 403.848C398.709 404.684 398.482 405.502 398.171 406.29C399.937 406.024 401.125 404.406 402.548 403.326C402.906 403.023 403.336 402.818 403.797 402.732C404.142 402.703 404.49 402.74 404.821 402.84C406.462 403.253 407.997 404.008 409.326 405.056C409.864 405.481 410.703 406.08 410.939 406.735C411.189 407.519 410.923 408.952 410.923 409.786Z" fill="#3F3D56"/>
<path d="M446.139 240.879C451.98 240.879 456.716 236.144 456.716 230.303C456.716 224.462 451.98 219.726 446.139 219.726C440.298 219.726 435.562 224.462 435.562 230.303C435.562 236.144 440.298 240.879 446.139 240.879Z" fill="#FBBEBE"/>
<path d="M466.975 292.748C466.932 294.77 466.645 296.78 466.12 298.733C465.619 301.159 464.973 303.552 464.185 305.9C463.576 307.605 462.813 309.315 462.818 311.122C462.818 311.874 462.941 312.709 462.48 313.302C462.07 313.719 461.552 314.015 460.985 314.157C460.702 314.232 460.441 314.373 460.222 314.568C460.003 314.763 459.833 315.006 459.726 315.279C459.245 314.56 458.885 313.768 458.661 312.934C457.743 310.122 456.89 307.294 456.101 304.451C456.029 304.287 455.998 304.109 456.011 303.93C456.023 303.752 456.079 303.579 456.173 303.427C456.303 303.314 456.454 303.229 456.618 303.176C457.143 302.962 457.624 302.654 458.036 302.265C458.23 302.093 458.39 301.887 458.507 301.656C458.656 301.289 458.724 300.895 458.707 300.499C458.707 299.142 458.707 297.791 458.671 296.434C458.65 295.182 458.698 293.929 458.815 292.682C458.815 292.436 458.861 292.042 458.902 291.622C458.978 290.818 459.132 289.887 459.567 289.574C460.217 289.139 462.163 289.723 462.9 289.825C464.169 289.999 465.459 290.204 466.698 290.445C466.878 291.199 466.971 291.972 466.975 292.748Z" fill="#3F3D56"/>
<path d="M424.269 242.144C423.859 242.963 422.876 243.357 422.119 243.874L419.523 245.656C419.35 245.812 419.147 245.932 418.926 246.007C418.705 246.083 418.471 246.113 418.238 246.096C418.027 246.018 417.834 245.899 417.669 245.745C417.505 245.591 417.373 245.406 417.281 245.2C417.283 245.187 417.283 245.173 417.281 245.159L416.743 244.258L414.184 239.968C413.899 239.584 413.734 239.125 413.708 238.647C413.708 238.427 413.785 238.223 413.805 238.002C413.812 237.384 413.634 236.778 413.293 236.262C413.088 235.878 412.679 235.561 412.689 235.131C412.669 234.565 412.767 234.002 412.976 233.477C413.244 232.991 413.63 232.579 414.097 232.279C414.337 232.105 414.583 231.941 414.839 231.767C414.975 231.674 415.126 231.605 415.284 231.562C415.709 231.475 416.129 231.829 416.559 231.844C418.407 233.083 419.119 235.427 420.573 237.117C421.392 238.079 421.474 238.816 422.4 239.676C422.549 239.81 422.692 239.953 422.83 240.101C423.014 240.301 423.169 240.525 423.291 240.767C423.46 241.207 424.479 241.724 424.269 242.144Z" fill="#3F3D56"/>
<path d="M442.422 240.885C443.185 242.497 443.779 244.268 443.559 246.04C443.513 246.52 443.361 246.983 443.113 247.396C442.376 248.528 440.83 248.732 439.484 248.799C439.2 248.775 438.914 248.808 438.644 248.896C438.373 248.984 438.122 249.125 437.907 249.311C437.727 249.572 437.639 249.886 437.657 250.203C437.674 250.52 437.796 250.822 438.004 251.062C438.437 251.524 438.974 251.875 439.571 252.086C441.7 253.022 443.999 253.795 446.313 253.58C447.388 253.478 448.432 253.166 449.502 253.007C450.668 252.881 451.841 252.816 453.014 252.813C454.406 252.761 455.794 252.623 457.181 252.485L460.857 252.121C461.058 252.124 461.253 252.053 461.405 251.922C461.676 251.604 461.328 251.139 460.99 250.898C459.039 249.454 456.557 248.461 455.446 246.291C454.934 245.267 454.775 244.048 454.396 242.943C454.017 241.837 453.413 240.838 453.178 239.712C453.052 238.724 452.996 237.729 453.009 236.733C453.022 235.729 452.656 234.756 451.985 234.009C451.253 233.328 450.193 233.154 449.2 233.113C446.753 233.006 444.147 233.59 442.412 235.315C441.946 235.781 441.547 236.339 441.065 236.758C440.584 237.178 439.929 237.301 440.246 237.854C440.564 238.407 441.188 238.75 441.526 239.236C441.868 239.761 442.168 240.312 442.422 240.885Z" fill="#FBBEBE"/>
<path d="M463.273 255.777C462.627 259.719 461.577 263.584 460.14 267.31C459.417 268.993 458.801 270.72 458.297 272.481C457.902 274.068 457.979 275.768 457.616 277.36C457.165 279.341 456.715 281.327 456.351 283.324C455.742 286.373 455.497 289.483 455.624 292.59C455.626 293.079 455.719 293.564 455.901 294.018C456.07 294.387 456.341 294.704 456.5 295.083C456.619 295.416 456.667 295.769 456.642 296.122C456.618 296.474 456.52 296.818 456.356 297.131C456.094 297.717 455.738 298.256 455.302 298.728C450.531 300.151 445.427 299.685 440.456 299.987C435.874 300.264 431.241 301.206 426.726 300.422C426.214 298.375 427.069 296.23 427.801 294.233C429.925 288.433 432.275 282.392 431.896 276.315C431.857 275.607 431.776 274.901 431.656 274.201C430.913 269.896 431.722 265.437 433.017 261.265C433.821 258.664 433.785 255.894 433.601 253.186C433.51 252.307 433.498 251.421 433.565 250.54C433.639 249.639 433.974 248.78 434.528 248.067C434.528 248.031 434.574 247.995 434.599 247.959C434.625 247.924 434.825 247.929 434.983 247.959C435.024 247.977 435.067 247.985 435.111 247.985C435.155 247.985 435.199 247.977 435.239 247.959L435.296 247.924C435.317 247.908 435.343 247.9 435.37 247.9C435.396 247.9 435.422 247.908 435.444 247.924C435.562 247.995 435.628 248.241 435.884 248.287C436.262 248.344 436.644 248.38 437.026 248.395C437.486 248.408 437.942 248.474 438.388 248.589H438.449C439.115 248.701 439.798 248.643 440.435 248.42C440.859 248.314 441.269 248.156 441.654 247.949C441.766 247.826 442.473 247.714 442.616 247.627C443.082 247.345 442.98 246.024 443.077 245.482C443.131 244.937 443.26 244.403 443.461 243.895C443.694 243.519 444.016 243.207 444.398 242.985C444.78 242.762 445.21 242.637 445.652 242.62C446.533 242.599 447.414 242.678 448.278 242.855C450.188 243.127 452.143 243.081 454.017 243.521C454.959 243.741 455.988 244.074 456.853 243.644C457.089 243.7 457.124 243.905 457.124 244.156C457.102 244.394 457.054 244.629 456.981 244.857C456.653 246.27 457.764 247.57 458.788 248.594C459.221 249.077 459.731 249.484 460.298 249.797C460.81 250.033 461.322 250.13 461.834 250.386C462.249 250.607 462.601 250.929 462.858 251.323C463.153 251.774 463.352 252.281 463.442 252.813C463.551 253.803 463.494 254.805 463.273 255.777Z" fill="#3F3D56"/>
<path opacity="0.1" d="M463.273 255.777C462.628 259.719 461.578 263.584 460.14 267.311C459.418 268.993 458.802 270.72 458.297 272.481C457.903 274.068 457.98 275.768 457.617 277.36C457.166 279.341 456.716 281.327 456.352 283.324C456.245 283.385 456.132 283.442 456.019 283.493C455.382 283.797 454.707 284.014 454.013 284.138C452.765 284.289 451.501 284.247 450.265 284.015L442.96 283.037C440.042 282.643 436.935 282.167 434.769 280.191C433.566 279.105 432.778 277.672 431.912 276.29C431.873 275.581 431.792 274.875 431.672 274.176C430.93 269.87 431.738 265.411 433.034 261.239C433.837 258.638 433.801 255.869 433.617 253.161C433.526 252.281 433.514 251.396 433.581 250.514C433.655 249.614 433.99 248.755 434.544 248.041C434.693 247.998 434.845 247.963 434.999 247.939C435.102 247.918 435.207 247.904 435.312 247.898H435.46C435.633 247.899 435.804 247.919 435.972 247.96C436.321 248.071 436.663 248.202 436.996 248.354H437.057C437.496 248.498 437.957 248.564 438.419 248.548C439.095 248.548 439.791 248.441 440.467 248.395C441.302 248.264 442.156 248.418 442.893 248.83C443.369 249.212 443.821 249.624 444.245 250.064C444.757 250.466 445.333 250.779 445.95 250.99C450.356 252.672 455.245 252.569 459.577 250.703C459.993 250.467 460.466 250.347 460.944 250.355C461.298 250.425 461.633 250.568 461.927 250.775C462.234 250.954 462.536 251.128 462.849 251.287C463.144 251.738 463.342 252.245 463.432 252.777C463.549 253.779 463.496 254.793 463.273 255.777Z" fill="black"/>
<path d="M467.732 252.388C465.693 251.765 463.735 250.906 461.896 249.828C461.601 249.622 461.266 249.479 460.913 249.408C460.433 249.403 459.96 249.523 459.541 249.756C455.211 251.622 450.324 251.725 445.919 250.043C445.303 249.83 444.727 249.517 444.214 249.116C443.788 248.679 443.337 248.267 442.862 247.883C441.178 246.792 438.849 248.072 436.965 247.371C436.631 247.222 436.289 247.09 435.941 246.977C434.451 246.603 432.936 248.088 431.472 247.637C430.927 249.118 430.524 250.647 430.269 252.203C430.061 253.991 429.949 255.789 429.936 257.589C429.936 258.669 429.885 259.749 429.936 260.83C430.116 260.859 430.289 260.926 430.442 261.025C430.595 261.125 430.726 261.255 430.827 261.408C430.894 261.586 430.921 261.777 430.907 261.967C430.893 262.157 430.838 262.342 430.745 262.509C429.675 265.258 428.59 268.037 426.967 270.5C428.111 271.181 429.172 271.992 430.131 272.916C431.922 274.81 432.803 277.467 434.738 279.218C436.919 281.189 440.026 281.67 442.929 282.059L450.234 283.037C451.471 283.269 452.736 283.312 453.987 283.165C454.68 283.039 455.353 282.82 455.988 282.515C456.403 282.341 456.782 282.091 457.104 281.778C457.374 281.471 457.597 281.126 457.765 280.754C458.343 279.597 458.87 278.414 459.357 277.216C459.526 276.792 459.782 276.295 460.242 276.259C462.956 273.812 465.515 271.304 468.229 268.857C469.319 267.953 470.297 266.922 471.141 265.785C472.488 263.794 471.264 260.973 471.141 258.567C471.127 257.951 471.049 257.339 470.911 256.739C470.471 254.993 469.437 252.905 467.732 252.388Z" fill="#4E0697"/>
<path opacity="0.1" d="M424.269 242.144C423.86 242.963 422.877 243.357 422.119 243.874L419.523 245.656C419.35 245.812 419.147 245.932 418.926 246.007C418.705 246.083 418.471 246.113 418.239 246.096C418.027 246.018 417.834 245.899 417.669 245.745C417.505 245.591 417.373 245.406 417.281 245.2C417.281 245.082 417.281 244.955 417.281 244.832C417.262 244.417 417.317 244.003 417.445 243.608C417.699 243.029 418.093 242.523 418.592 242.134C419.556 241.221 420.702 240.523 421.955 240.086C422.151 240.01 422.363 239.989 422.569 240.025C422.649 240.045 422.725 240.078 422.795 240.122C422.978 240.322 423.133 240.546 423.255 240.787C423.46 241.207 424.479 241.724 424.269 242.144Z" fill="black"/>
<path d="M430.382 247.54C429.511 247.499 428.8 246.869 428.165 246.27L426.225 244.468C426.095 244.358 425.981 244.231 425.887 244.089C425.782 243.89 425.703 243.679 425.652 243.46C425.24 242.425 424.595 241.5 423.768 240.757C423.623 240.573 423.43 240.435 423.21 240.357C423.001 240.319 422.787 240.34 422.59 240.419C421.337 240.855 420.19 241.553 419.227 242.466C418.729 242.856 418.335 243.362 418.08 243.941C417.951 244.335 417.896 244.75 417.916 245.164C417.928 246.517 418.232 247.851 418.807 249.075C418.894 249.265 418.991 249.454 419.094 249.639C419.777 250.767 420.584 251.817 421.5 252.766L422.718 254.128C423.916 255.469 425.114 256.811 426.414 258.045C426.88 258.542 427.445 258.936 428.073 259.201C428.388 259.33 428.732 259.369 429.068 259.315C429.404 259.261 429.719 259.115 429.977 258.894C430.223 258.61 430.407 258.279 430.52 257.922C431.308 255.874 432.056 253.744 432.102 251.538C432.113 250.654 432.075 249.771 431.989 248.891C431.912 247.959 431.252 247.596 430.382 247.54Z" fill="#4E0697"/>
<path d="M461.405 319.21C461.375 324.36 461.009 329.502 460.309 334.604C460.207 335.428 460.094 336.252 460.038 337.077C459.869 339.467 460.145 341.868 459.92 344.244C459.802 345.529 459.536 346.803 459.311 348.058C458.31 353.656 458.018 359.357 458.441 365.028C459.147 374.463 456.982 383.903 457.965 393.312C458.084 395.142 457.982 396.979 457.663 398.785C457.479 399.905 457.214 401.011 456.869 402.092C456.122 404.655 455.371 407.215 454.617 409.771C454.528 410.16 454.353 410.524 454.105 410.836C453.843 411.062 453.537 411.229 453.206 411.327C452.875 411.425 452.527 411.451 452.185 411.404C449.231 411.312 446.451 410.037 443.769 408.793C443.46 408.672 443.175 408.498 442.924 408.281C442.366 407.703 442.412 406.792 442.166 406.029C441.921 405.266 441.255 404.549 440.876 403.766C440.565 403.025 440.376 402.238 440.318 401.437C439.977 398.816 439.745 396.184 439.622 393.543C439.427 389.826 441.885 386.406 442.694 382.792C444.229 375.687 442.929 368.069 445.658 361.327C446.518 359.197 445.269 356.617 445.146 354.324C445.102 352.844 444.909 351.373 444.572 349.931C444.06 348.006 442.98 346.194 442.904 344.198C442.847 342.754 443.313 341.346 443.554 339.923C443.873 337.829 443.843 335.696 443.467 333.611C443.195 331.891 442.781 330.171 442.366 328.492L442.274 328.681C441.027 331.119 439.954 333.642 439.064 336.232C438.654 337.486 438.296 338.766 437.784 339.984C437.364 341.008 436.847 341.945 436.341 342.908C434.523 346.302 432.941 349.817 431.605 353.428C430.97 355.199 430.412 357.011 429.859 358.788L426.066 371.074C425.042 374.304 423.921 377.427 422.918 380.652C421.5 385.26 420.082 389.826 418.433 394.331C416.897 398.606 415.07 403.034 415.618 407.549C414.206 408.213 412.656 408.527 411.097 408.466C408.459 408.232 405.87 407.604 403.418 406.602C402.44 406.239 401.427 405.829 400.766 405.025C399.63 403.638 399.911 401.606 400.254 399.84C400.384 399.043 400.589 398.262 400.869 397.505C401.258 396.563 401.893 395.729 402.292 394.797C403.096 393.01 403.147 390.988 403.464 389.048C403.782 387.108 404.488 385.06 406.147 384.005C406.428 380.596 407.831 377.233 408.604 373.9C409.188 371.376 409.382 368.781 409.843 366.221C410.304 363.661 411.046 361.102 412.592 359.028C412.47 356.89 412.953 354.761 413.984 352.885C414.234 352.473 414.438 352.035 414.594 351.58C414.689 351.135 414.744 350.683 414.757 350.228C414.927 348.449 415.687 346.778 416.918 345.483C416.406 343.614 417.117 341.664 417.757 339.851C418.563 337.539 418.928 335.096 418.832 332.648C418.753 331.965 418.786 331.273 418.93 330.601C419.073 330.089 419.355 329.654 419.518 329.162C419.664 328.56 419.742 327.944 419.749 327.324C419.948 324.555 421.07 321.944 422.308 319.471C423.046 318.028 422.421 316.067 422.575 314.459C422.841 311.787 423.133 309.023 424.459 306.693C424.704 306.253 424.971 305.833 425.191 305.378C425.457 304.727 425.601 304.033 425.616 303.33C425.662 302.158 425.825 301.185 425.406 300.095C428.145 297.817 431.882 297.177 435.445 297.023C439.008 296.869 442.612 297.192 446.098 296.434C447.122 296.204 448.146 295.887 449.226 295.733C451.678 295.375 454.166 295.933 456.587 296.486C456.419 298.021 456.982 299.496 457.611 300.924C460.07 306.71 461.359 312.924 461.405 319.21Z" fill="#33313F"/>
<path opacity="0.1" d="M449.348 320.383L443.466 333.611C443.195 331.891 442.78 330.171 442.366 328.492L442.273 328.681V328.405L445.478 321.355L449.348 320.383Z" fill="black"/>
<path opacity="0.1" d="M466.974 292.748C466.635 293.002 466.23 293.153 465.807 293.184C465.159 293.207 464.511 293.118 463.892 292.922L459.285 291.771C459.141 291.735 459 291.685 458.865 291.622C458.942 290.818 459.096 289.887 459.531 289.574C460.181 289.139 462.126 289.723 462.863 289.825C464.133 289.999 465.423 290.204 466.662 290.445C466.854 291.198 466.959 291.971 466.974 292.748Z" fill="black"/>
<path d="M470.87 262.288C470.967 262.713 471.106 263.133 471.188 263.563C471.325 264.618 471.289 265.689 471.08 266.732L470.66 269.66L470.24 272.604L468.618 283.933L468.218 286.738L467.655 290.655C467.629 290.98 467.545 291.299 467.41 291.597C467.242 291.875 467.008 292.107 466.728 292.272C466.448 292.438 466.132 292.531 465.807 292.544C465.159 292.564 464.512 292.476 463.893 292.283L459.285 291.126C459.083 291.09 458.891 291.011 458.722 290.895C458.581 290.758 458.48 290.585 458.427 290.395C458.375 290.205 458.374 290.005 458.425 289.815C458.492 289.426 458.661 289.062 458.717 288.673C458.83 287.916 458.512 287.138 458.625 286.385C458.735 285.906 458.907 285.443 459.137 285.008C460.672 281.614 459.782 277.652 460.304 273.966C460.774 271.065 461.999 268.339 463.857 266.061C465.003 264.624 466.32 263.331 467.778 262.212C468.351 261.766 469.263 260.85 469.985 260.676C470.911 260.481 470.717 261.643 470.87 262.288Z" fill="#4E0697"/>
<path d="M436.003 218.191C435.665 219.266 436.192 220.448 435.952 221.544C435.691 222.752 434.554 223.592 434.232 224.805C433.72 226.653 435.286 228.337 436.433 229.873C440.682 235.576 440.124 243.47 438.67 250.427C437.5 256.009 435.882 261.487 433.832 266.809C433.192 268.462 432.486 270.142 431.227 271.38C433.581 270.705 436.085 270.024 438.445 270.679C441.434 271.508 444.015 274.411 447.045 273.751C448.868 273.346 450.148 271.729 451.786 270.833C454.857 269.179 458.559 270.218 461.983 270.751C462.721 270.925 463.494 270.886 464.21 270.638C464.758 270.344 465.223 269.916 465.562 269.394C467.09 267.433 468.006 265.065 468.193 262.585C468.274 261.351 468.092 260.113 467.659 258.954C467.225 257.796 466.551 256.742 465.68 255.864C464.953 255.178 464.082 254.625 463.524 253.816C462.982 252.871 462.691 251.803 462.68 250.714C462.275 245.082 463.647 239.333 462.234 233.886C461.722 231.946 460.888 230.088 460.663 228.102C460.381 225.629 461.052 222.982 460.069 220.72C459.296 218.923 457.591 217.648 455.753 216.993C453.915 216.337 451.95 216.153 449.999 215.969C447.194 215.733 437.175 214.53 436.003 218.191Z" fill="#33313F"/>
<g opacity="0.1">
<path opacity="0.1" d="M438.67 250.427C437.506 255.986 435.896 261.442 433.857 266.742C434.211 266.041 434.508 265.304 434.789 264.572C436.842 259.251 438.459 253.772 439.627 248.19C441.086 241.228 441.644 233.344 437.395 227.636C436.371 226.274 435.055 224.8 435.101 223.202C434.723 223.685 434.429 224.229 434.231 224.81C433.719 226.658 435.286 228.342 436.432 229.878C440.681 235.576 440.123 243.47 438.67 250.427Z" fill="black"/>
<path opacity="0.1" d="M436.013 221.027C436.424 220.517 436.73 219.93 436.914 219.302C436.994 218.541 436.973 217.773 436.853 217.018C436.459 217.315 436.163 217.724 436.003 218.191C435.701 219.097 436.049 220.08 436.013 221.027Z" fill="black"/>
<path opacity="0.1" d="M466.524 267.142C466.185 267.662 465.72 268.088 465.173 268.38C464.457 268.633 463.683 268.672 462.946 268.493C459.521 267.981 455.779 266.927 452.748 268.58C451.105 269.471 449.83 271.089 448.003 271.498C444.977 272.174 442.397 269.271 439.407 268.427C437.288 267.838 435.056 268.324 432.921 268.938C432.497 269.843 431.924 270.67 431.227 271.386C433.581 270.71 436.085 270.029 438.445 270.684C441.434 271.514 444.015 274.416 447.045 273.756C448.868 273.351 450.148 271.734 451.786 270.838C454.857 269.184 458.559 270.223 461.983 270.756C462.721 270.93 463.494 270.891 464.21 270.643C464.758 270.349 465.223 269.921 465.562 269.399C466.49 268.175 467.206 266.805 467.681 265.345C467.339 265.971 466.952 266.571 466.524 267.142Z" fill="black"/>
</g>
</g>
<defs>
<linearGradient id="paint0_linear" x1="393.471" y1="313.518" x2="471.796" y2="313.518" gradientUnits="userSpaceOnUse">
<stop stop-color="#808080" stop-opacity="0.25"/>
<stop offset="0.54" stop-color="#808080" stop-opacity="0.12"/>
<stop offset="1" stop-color="#808080" stop-opacity="0.1"/>
</linearGradient>
<clipPath id="clip0">
<rect width="597" height="412.152" fill="white"/>
</clipPath>
</defs>
</svg>
