<svg width="140" height="40" viewBox="0 0 140 40" fill="none" xmlns="http://www.w3.org/2000/svg">
<path d="M52.499 27.18L64.407 12.62H52.733V10.54H67.137V12.36L55.437 26.92H67.137V29H52.499V27.18ZM77.8973 29.13C76.424 29.13 75.1847 28.8787 74.1793 28.376C73.174 27.856 72.368 27.1627 71.7613 26.296C71.1547 25.412 70.7127 24.4153 70.4353 23.306C70.158 22.1967 70.0193 21.0527 70.0193 19.874V10.54H72.3593V19.874C72.3593 20.7753 72.446 21.6593 72.6193 22.526C72.81 23.3753 73.1133 24.138 73.5293 24.814C73.9453 25.49 74.5087 26.0273 75.2193 26.426C75.93 26.8247 76.814 27.024 77.8713 27.024C78.946 27.024 79.8387 26.8247 80.5493 26.426C81.26 26.01 81.8233 25.464 82.2393 24.788C82.6553 24.0947 82.95 23.3233 83.1233 22.474C83.314 21.6247 83.4093 20.758 83.4093 19.874V10.54H85.7493V19.874C85.7493 21.122 85.602 22.3093 85.3073 23.436C85.03 24.5453 84.5793 25.5247 83.9553 26.374C83.3313 27.2233 82.5167 27.8993 81.5113 28.402C80.5233 28.8873 79.3187 29.13 77.8973 29.13ZM104.076 24.242C104.076 25.1953 103.834 26.0273 103.348 26.738C102.863 27.4487 102.204 28.0033 101.372 28.402C100.558 28.8007 99.6563 29 98.6683 29H89.9063V10.54H99.0843C99.951 10.54 100.696 10.774 101.32 11.242C101.962 11.6927 102.447 12.282 102.776 13.01C103.123 13.7207 103.296 14.466 103.296 15.246C103.296 16.1473 103.062 16.9967 102.594 17.794C102.144 18.574 101.494 19.1547 100.644 19.536C101.702 19.848 102.534 20.4287 103.14 21.278C103.764 22.11 104.076 23.098 104.076 24.242ZM92.2463 12.568V18.73H98.1223C98.937 18.73 99.613 18.4353 100.15 17.846C100.705 17.2393 100.982 16.5113 100.982 15.662C100.982 14.7953 100.722 14.0673 100.202 13.478C99.6996 12.8713 99.0583 12.568 98.2783 12.568H92.2463ZM101.71 23.826C101.71 23.254 101.58 22.7253 101.32 22.24C101.078 21.7547 100.74 21.3647 100.306 21.07C99.8903 20.7753 99.405 20.628 98.8503 20.628H92.2463V26.972H98.6683C99.2403 26.972 99.7516 26.8247 100.202 26.53C100.67 26.2353 101.034 25.854 101.294 25.386C101.572 24.9007 101.71 24.3807 101.71 23.826ZM112.585 10.54H114.561L122.101 29H119.605L117.421 23.592H109.673L107.515 29H105.019L112.585 10.54ZM116.901 21.772L113.573 13.244L110.141 21.772H116.901ZM124.564 29V10.54H132.468C133.283 10.54 134.028 10.7133 134.704 11.06C135.38 11.3893 135.97 11.84 136.472 12.412C136.975 12.9667 137.365 13.5993 137.642 14.31C137.92 15.0033 138.058 15.714 138.058 16.442C138.058 17.2913 137.894 18.0973 137.564 18.86C137.252 19.6227 136.802 20.2727 136.212 20.81C135.64 21.3473 134.964 21.72 134.184 21.928L138.656 29H136.004L131.792 22.37H126.904V29H124.564ZM126.904 20.29H132.494C133.136 20.29 133.69 20.1167 134.158 19.77C134.644 19.406 135.016 18.9293 135.276 18.34C135.554 17.7507 135.692 17.118 135.692 16.442C135.692 15.7487 135.536 15.116 135.224 14.544C134.912 13.9547 134.505 13.4867 134.002 13.14C133.5 12.7933 132.945 12.62 132.338 12.62H126.904V20.29Z" fill="#4E0697"/>
<path d="M2 38V21V2H42L14.8302 26.4528M2 38L14.8302 26.4528M2 38H42L14.8302 26.4528" stroke="#4E0697" stroke-width="3" stroke-linecap="round" stroke-linejoin="round"/>
</svg>
