<svg width="32" height="32" viewBox="0 0 32 32" fill="none" xmlns="http://www.w3.org/2000/svg">
<path d="M16.0003 17.3334C16.7367 17.3334 17.3337 16.7365 17.3337 16.0001C17.3337 15.2637 16.7367 14.6667 16.0003 14.6667C15.2639 14.6667 14.667 15.2637 14.667 16.0001C14.667 16.7365 15.2639 17.3334 16.0003 17.3334Z" stroke="#211925" stroke-width="1.5"/>
<path d="M21.3333 17.3334C22.0697 17.3334 22.6667 16.7365 22.6667 16.0001C22.6667 15.2637 22.0697 14.6667 21.3333 14.6667C20.597 14.6667 20 15.2637 20 16.0001C20 16.7365 20.597 17.3334 21.3333 17.3334Z" stroke="#211925" stroke-width="1.5"/>
<path d="M10.6663 17.3334C11.4027 17.3334 11.9997 16.7365 11.9997 16.0001C11.9997 15.2637 11.4027 14.6667 10.6663 14.6667C9.92996 14.6667 9.33301 15.2637 9.33301 16.0001C9.33301 16.7365 9.92996 17.3334 10.6663 17.3334Z" stroke="#211925" stroke-width="1.5"/>
<path d="M25.4268 6.57344C23.2391 4.37145 20.3517 3.00173 17.2623 2.70043C14.173 2.39914 11.0753 3.18515 8.50334 4.92295C5.93139 6.66076 4.04634 9.24145 3.17318 12.2201C2.30001 15.1988 2.49346 18.3888 3.72016 21.2401C3.84801 21.5051 3.88996 21.8034 3.84016 22.0934L2.66682 27.7334C2.62162 27.9497 2.63085 28.1738 2.69369 28.3855C2.75653 28.5973 2.871 28.7902 3.02682 28.9468C3.15456 29.0736 3.30666 29.1732 3.47394 29.2397C3.64122 29.3061 3.82022 29.338 4.00016 29.3334H4.26682L9.97349 28.1868C10.2635 28.1519 10.5577 28.1933 10.8268 28.3068C13.6782 29.5335 16.8681 29.7269 19.8468 28.8538C22.8255 27.9806 25.4062 26.0955 27.144 23.5236C28.8818 20.9516 29.6678 17.854 29.3665 14.7646C29.0652 11.6753 27.6955 8.78783 25.4935 6.60011L25.4268 6.57344ZM26.5335 17.7201C26.2728 19.3121 25.6544 20.8242 24.7249 22.1426C23.7954 23.4611 22.5789 24.5515 21.167 25.3319C19.7552 26.1123 18.1847 26.5623 16.5738 26.648C14.9629 26.7337 13.3535 26.4529 11.8668 25.8268C11.3395 25.6025 10.7731 25.4847 10.2002 25.4801C9.94986 25.4819 9.70014 25.5042 9.45349 25.5468L5.69349 26.3068L6.45349 22.5468C6.60486 21.7325 6.50728 20.8915 6.17349 20.1334C5.54735 18.6467 5.26657 17.0374 5.35228 15.4265C5.438 13.8156 5.88797 12.2451 6.66835 10.8332C7.44872 9.42138 8.53917 8.20491 9.85762 7.27538C11.1761 6.34585 12.6882 5.72747 14.2802 5.46678C15.9512 5.19253 17.6635 5.32008 19.2755 5.83886C20.8874 6.35764 22.3527 7.25276 23.5501 8.45016C24.7475 9.64756 25.6426 11.1128 26.1614 12.7248C26.6802 14.3368 26.8077 16.0491 26.5335 17.7201V17.7201Z" stroke="#211925" stroke-width="1.5"/>
</svg>
