<svg width="32" height="32" viewBox="0 0 32 32" fill="none" xmlns="http://www.w3.org/2000/svg">
<path d="M11 25V6L24 3V23M11 13L24 10" stroke="#211925" stroke-width="1.5" stroke-linecap="round" stroke-linejoin="round"/>
<path d="M7 30C9.20914 30 11 27.7614 11 25C11 22.2386 9.20914 20 7 20C4.79086 20 3 22.2386 3 25C3 27.7614 4.79086 30 7 30Z" stroke="#211925" stroke-width="1.5" stroke-linecap="round" stroke-linejoin="round"/>
<path d="M20 28C22.2091 28 24 25.7614 24 23C24 20.2386 22.2091 18 20 18C17.7909 18 16 20.2386 16 23C16 25.7614 17.7909 28 20 28Z" stroke="#211925" stroke-width="1.5" stroke-linecap="round" stroke-linejoin="round"/>
</svg>
