<svg width="30" height="28" viewBox="0 0 30 28" fill="none" xmlns="http://www.w3.org/2000/svg">
<path d="M26.7871 4.14666C26.1061 3.46533 25.2976 2.92485 24.4076 2.5561C23.5177 2.18735 22.5638 1.99756 21.6005 1.99756C20.6372 1.99756 19.6833 2.18735 18.7933 2.5561C17.9034 2.92485 17.0948 3.46533 16.4138 4.14666L15.0005 5.55999L13.5871 4.14666C12.2116 2.77107 10.3459 1.99827 8.40048 1.99827C6.45511 1.99827 4.58941 2.77107 3.21382 4.14666C1.83823 5.52225 1.06543 7.38795 1.06543 9.33332C1.06543 11.2787 1.83823 13.1444 3.21382 14.52L4.62715 15.9333L15.0005 26.3067L25.3738 15.9333L26.7871 14.52C27.4685 13.839 28.009 13.0304 28.3777 12.1405C28.7465 11.2505 28.9362 10.2966 28.9362 9.33332C28.9362 8.37001 28.7465 7.41613 28.3777 6.52618C28.009 5.63624 27.4685 4.82767 26.7871 4.14666V4.14666Z" stroke="#211925" stroke-width="2" stroke-linecap="round" stroke-linejoin="round"/>
</svg>
